<svg width="16" height="16" viewBox="0 0 16 16" fill="none" xmlns="http://www.w3.org/2000/svg">
<path d="M7.99985 6.00015V8.66682M7.99985 11.3335H8.00651M7.07673 2.59464L1.59347 12.0657C1.28933 12.591 1.13726 12.8537 1.15974 13.0693C1.17934 13.2573 1.27786 13.4282 1.43076 13.5394C1.60607 13.6668 1.90957 13.6668 2.51659 13.6668H13.4831C14.0901 13.6668 14.3936 13.6668 14.5689 13.5394C14.7218 13.4282 14.8204 13.2573 14.84 13.0693C14.8624 12.8537 14.7104 12.591 14.4062 12.0657L8.92297 2.59463C8.61992 2.07119 8.4684 1.80947 8.27071 1.72157C8.09828 1.64489 7.90142 1.64489 7.72898 1.72157C7.53129 1.80947 7.37977 2.07119 7.07673 2.59464Z" stroke="#17191C" stroke-linecap="round" stroke-linejoin="round"/>
</svg>
