<svg width="16" height="16" viewBox="0 0 16 16" fill="none" xmlns="http://www.w3.org/2000/svg">
<path d="M4.7567 7.45899L2.22021 2.92002C1.92855 2.39811 1.78272 2.13715 1.80729 1.92349C1.82874 1.73708 1.92774 1.56834 2.08001 1.45869C2.25453 1.33301 2.55347 1.33301 3.15134 1.33301H4.64122C4.86342 1.33301 4.97452 1.33301 5.07417 1.3651C5.16235 1.39349 5.24364 1.43995 5.31287 1.50151C5.3911 1.57109 5.44749 1.66681 5.56027 1.85826L8.00001 5.99967L10.4397 1.85826C10.5525 1.66681 10.6089 1.57109 10.6872 1.50151C10.7564 1.43995 10.8377 1.39349 10.9258 1.3651C11.0255 1.33301 11.1366 1.33301 11.3588 1.33301H12.8487C13.4466 1.33301 13.7455 1.33301 13.92 1.45869C14.0723 1.56834 14.1713 1.73708 14.1927 1.92349C14.2173 2.13715 14.0715 2.39811 13.7798 2.92002L11.2433 7.45899M7.00001 9.33301L8.00001 8.66634V11.9997M7.16668 11.9997H8.83334M11.0641 7.26888C12.7564 8.96114 12.7564 11.7049 11.0641 13.3971C9.37187 15.0894 6.62816 15.0894 4.93588 13.3971C3.24361 11.7049 3.24361 8.96115 4.93588 7.26888C6.62815 5.57661 9.37186 5.57661 11.0641 7.26888Z" stroke="#17191C" stroke-linecap="round" stroke-linejoin="round"/>
</svg>
