<svg width="16" height="16" viewBox="0 0 16 16" fill="none" xmlns="http://www.w3.org/2000/svg">
<path d="M5.9175 8.72988L3.13414 5.25069C2.96088 5.03411 2.87425 4.92582 2.81264 4.80524C2.75799 4.69825 2.71804 4.58437 2.69389 4.46669C2.66666 4.33404 2.66666 4.19537 2.66666 3.91801V3.46634C2.66666 2.7196 2.66666 2.34624 2.81199 2.06102C2.93982 1.81014 3.14379 1.60616 3.39468 1.47833C3.67989 1.33301 4.05326 1.33301 4.8 1.33301H11.2C11.9467 1.33301 12.3201 1.33301 12.6053 1.47833C12.8562 1.60616 13.0602 1.81014 13.188 2.06102C13.3333 2.34624 13.3333 2.7196 13.3333 3.46634V3.91801C13.3333 4.19537 13.3333 4.33404 13.3061 4.46669C13.282 4.58437 13.242 4.69825 13.1874 4.80524C13.1257 4.92582 13.0391 5.03411 12.8659 5.25069L10.0825 8.72988M3.33337 1.99967L8.00003 7.99967L12.6666 1.99967M10.357 8.97598C11.6588 10.2777 11.6588 12.3883 10.357 13.69C9.05528 14.9918 6.94473 14.9918 5.64297 13.69C4.34123 12.3883 4.34123 10.2777 5.64297 8.97598C6.94472 7.67424 9.05527 7.67424 10.357 8.97598Z" stroke="#17191C" stroke-linecap="round" stroke-linejoin="round"/>
</svg>
