<svg width="16" height="16" viewBox="0 0 16 16" fill="none" xmlns="http://www.w3.org/2000/svg">
<path d="M13.3333 13.3333V8.66667M7.99999 13.3333V6.66667M2.66666 13.3333L2.66666 10.6667M8.93777 3.35167L12.3834 4.64378M7.19917 3.60061L3.46681 6.39989M14.0404 4.29289C14.431 4.68342 14.431 5.31658 14.0404 5.70711C13.6499 6.09763 13.0167 6.09763 12.6262 5.70711C12.2357 5.31658 12.2357 4.68342 12.6262 4.29289C13.0167 3.90237 13.6499 3.90237 14.0404 4.29289ZM3.37376 6.29289C3.76429 6.68342 3.76429 7.31658 3.37376 7.70711C2.98324 8.09763 2.35007 8.09763 1.95955 7.70711C1.56903 7.31658 1.56903 6.68342 1.95955 6.29289C2.35007 5.90237 2.98324 5.90237 3.37376 6.29289ZM8.7071 2.29289C9.09762 2.68342 9.09762 3.31658 8.7071 3.70711C8.31657 4.09763 7.68341 4.09763 7.29288 3.70711C6.90236 3.31658 6.90236 2.68342 7.29288 2.29289C7.68341 1.90237 8.31657 1.90237 8.7071 2.29289Z" stroke="#17191C" stroke-linecap="round" stroke-linejoin="round"/>
</svg>
