<svg width="16" height="16" viewBox="0 0 16 16" fill="none" xmlns="http://www.w3.org/2000/svg">
<g clip-path="url(#clip0_762_1846)">
<path d="M6.66667 1.33306V4.44001C6.66667 4.58479 6.66667 4.65718 6.6446 4.71477C6.62379 4.76909 6.59624 4.80853 6.55239 4.84676C6.5059 4.88729 6.43062 4.91487 6.28005 4.97003C4.36595 5.67124 3 7.50927 3 9.66634C3 12.4278 5.23858 14.6663 8 14.6663C10.7614 14.6663 13 12.4278 13 9.66634C13 7.50927 11.6341 5.67124 9.71995 4.97003C9.56938 4.91487 9.4941 4.88729 9.44761 4.84676C9.40376 4.80853 9.37621 4.76909 9.3554 4.71477C9.33333 4.65718 9.33333 4.58479 9.33333 4.44001V1.33306M5.66667 1.33301H10.3333" stroke="#17191C" stroke-linecap="round" stroke-linejoin="round"/>
</g>
<defs>
<clipPath id="clip0_762_1846">
<rect width="16" height="16" fill="white"/>
</clipPath>
</defs>
</svg>
