<svg width="16" height="16" viewBox="0 0 16 16" fill="none" xmlns="http://www.w3.org/2000/svg">
<path d="M6 3.99967V7.00047C6 7.36776 6 7.5514 5.95422 7.72158C5.91365 7.87236 5.84691 8.01484 5.75705 8.14254C5.65563 8.28665 5.51455 8.40422 5.23239 8.63935L2.76761 10.6933C2.48545 10.9285 2.34437 11.046 2.24295 11.1901C2.15309 11.3178 2.08635 11.4603 2.04578 11.6111C2 11.7813 2 11.9649 2 12.3322V12.533C2 13.2797 2 13.6531 2.14532 13.9383C2.27316 14.1892 2.47713 14.3932 2.72801 14.521C3.01323 14.6663 3.3866 14.6663 4.13333 14.6663H11.8667C12.6134 14.6663 12.9868 14.6663 13.272 14.521C13.5229 14.3932 13.7268 14.1892 13.8547 13.9383C14 13.6531 14 13.2797 14 12.533V12.3322C14 11.9649 14 11.7813 13.9542 11.6111C13.9136 11.4603 13.8469 11.3178 13.757 11.1901C13.6556 11.046 13.5145 10.9285 13.2324 10.6933L10.7676 8.63935C10.4855 8.40422 10.3444 8.28665 10.243 8.14254C10.1531 8.01484 10.0864 7.87236 10.0458 7.72158C10 7.5514 10 7.36776 10 7.00047V3.99967M5.53333 3.99967H10.4667C10.6534 3.99967 10.7467 3.99967 10.818 3.96334C10.8807 3.93139 10.9317 3.88039 10.9637 3.81767C11 3.74637 11 3.65303 11 3.46634V1.86634C11 1.67966 11 1.58631 10.9637 1.51501C10.9317 1.45229 10.8807 1.4013 10.818 1.36934C10.7467 1.33301 10.6534 1.33301 10.4667 1.33301H5.53333C5.34665 1.33301 5.25331 1.33301 5.182 1.36934C5.11928 1.4013 5.06829 1.45229 5.03633 1.51501C5 1.58631 5 1.67966 5 1.86634V3.46634C5 3.65303 5 3.74637 5.03633 3.81767C5.06829 3.88039 5.11928 3.93139 5.182 3.96334C5.25331 3.99967 5.34665 3.99967 5.53333 3.99967ZM3.66667 11.333H12.3333C12.6431 11.333 12.798 11.333 12.9268 11.3586C13.4557 11.4638 13.8692 11.8773 13.9744 12.4062C14 12.535 14 12.6899 14 12.9997C14 13.3094 14 13.4643 13.9744 13.5931C13.8692 14.122 13.4557 14.5355 12.9268 14.6407C12.798 14.6663 12.6431 14.6663 12.3333 14.6663H3.66667C3.3569 14.6663 3.20201 14.6663 3.07321 14.6407C2.54429 14.5355 2.13083 14.122 2.02562 13.5931C2 13.4643 2 13.3094 2 12.9997C2 12.6899 2 12.535 2.02562 12.4062C2.13083 11.8773 2.54429 11.4638 3.07321 11.3586C3.20201 11.333 3.3569 11.333 3.66667 11.333Z" stroke="#17191C" stroke-linecap="round" stroke-linejoin="round"/>
</svg>
