<svg width="16" height="16" viewBox="0 0 16 16" fill="none" xmlns="http://www.w3.org/2000/svg">
<path d="M9.99981 12.6668C9.99981 13.7714 9.10438 14.6668 7.99981 14.6668C6.89524 14.6668 5.99981 13.7714 5.99981 12.6668M9.19748 4.1592C9.48781 3.85926 9.66648 3.45057 9.66648 3.00016C9.66648 2.07969 8.92029 1.3335 7.99981 1.3335C7.07934 1.3335 6.33315 2.07969 6.33315 3.00016C6.33315 3.45057 6.51182 3.85926 6.80214 4.1592M11.9998 7.46683C11.9998 6.54741 11.5784 5.66565 10.8282 5.01553C10.0781 4.3654 9.06068 4.00016 7.99981 4.00016C6.93895 4.00016 5.92153 4.3654 5.17139 5.01553C4.42124 5.66565 3.99981 6.54741 3.99981 7.46683C3.99981 8.98803 3.62257 10.1005 3.15186 10.8966C2.61537 11.8039 2.34713 12.2576 2.35772 12.3659C2.36984 12.4899 2.39216 12.529 2.49271 12.6026C2.58059 12.6668 3.02215 12.6668 3.90527 12.6668H12.0944C12.9775 12.6668 13.419 12.6668 13.5069 12.6026C13.6075 12.529 13.6298 12.4899 13.6419 12.3659C13.6525 12.2576 13.3843 11.8039 12.8478 10.8966C12.3771 10.1006 11.9998 8.98803 11.9998 7.46683Z" stroke="#17191C" stroke-linecap="round" stroke-linejoin="round"/>
</svg>
