<svg width="16" height="16" viewBox="0 0 16 16" fill="none" xmlns="http://www.w3.org/2000/svg">
<path d="M13.3333 12.6663V10.6663H4.66666C3.56209 10.6663 2.66666 11.5618 2.66666 12.6663M5.86666 14.6663H11.2C11.9467 14.6663 12.3201 14.6663 12.6053 14.521C12.8562 14.3932 13.0602 14.1892 13.188 13.9383C13.3333 13.6531 13.3333 13.2797 13.3333 12.533V3.46634C13.3333 2.7196 13.3333 2.34624 13.188 2.06102C13.0602 1.81014 12.8562 1.60616 12.6053 1.47833C12.3201 1.33301 11.9467 1.33301 11.2 1.33301H5.86666C4.74656 1.33301 4.18651 1.33301 3.75868 1.55099C3.38236 1.74274 3.0764 2.0487 2.88465 2.42503C2.66666 2.85285 2.66666 3.4129 2.66666 4.53301V11.4663C2.66666 12.5864 2.66666 13.1465 2.88465 13.5743C3.0764 13.9506 3.38236 14.2566 3.75868 14.4484C4.18651 14.6663 4.74656 14.6663 5.86666 14.6663Z" stroke="#17191C" stroke-linecap="round" stroke-linejoin="round"/>
</svg>
