<svg width="16" height="16" viewBox="0 0 16 16" fill="none" xmlns="http://www.w3.org/2000/svg">
<path d="M6 7.48127L8.51852 9.99979M5.31658 13.983C4.40536 14.8943 2.66668 14.6665 1.33335 14.6665C2.01675 13.3331 1.10553 11.5944 2.01675 10.6832C2.92797 9.77198 4.40536 9.77198 5.31658 10.6832C6.22781 11.5944 6.22781 13.0718 5.31658 13.983ZM7.94775 10.6162L14.0392 4.03748C14.5757 3.45804 14.5584 2.55818 14 1.99979C13.4416 1.44139 12.5417 1.42409 11.9623 1.96062L5.38357 8.05202C5.04362 8.36679 4.87364 8.52418 4.7745 8.69204C4.53678 9.09455 4.52721 9.59215 4.74929 10.0035C4.8419 10.175 5.00571 10.3388 5.33332 10.6665C5.66092 10.9941 5.82473 11.1579 5.99627 11.2505C6.40762 11.4726 6.90523 11.463 7.30773 11.2253C7.47559 11.1261 7.63298 10.9562 7.94775 10.6162Z" stroke="#17191C" stroke-linecap="round" stroke-linejoin="round"/>
</svg>
