<svg width="16" height="16" viewBox="0 0 16 16" fill="none" xmlns="http://www.w3.org/2000/svg">
<path d="M1.33334 5.58498C1.33334 5.35143 1.33334 5.23466 1.34309 5.1363C1.43708 4.18768 2.18752 3.43723 3.13615 3.34324C3.23451 3.3335 3.35758 3.3335 3.60373 3.3335C3.69858 3.3335 3.746 3.3335 3.78627 3.33106C4.30042 3.29992 4.75064 2.97541 4.94277 2.4975C4.95782 2.46007 4.97188 2.41788 5.00001 2.3335C5.02814 2.24911 5.0422 2.20692 5.05725 2.1695C5.24938 1.69158 5.6996 1.36707 6.21375 1.33593C6.25402 1.3335 6.29849 1.3335 6.38744 1.3335H9.61258C9.70153 1.3335 9.746 1.3335 9.78627 1.33593C10.3004 1.36707 10.7506 1.69158 10.9428 2.1695C10.9578 2.20692 10.9719 2.24911 11 2.3335C11.0281 2.41788 11.0422 2.46007 11.0572 2.4975C11.2494 2.97541 11.6996 3.29992 12.2138 3.33106C12.254 3.3335 12.3014 3.3335 12.3963 3.3335C12.6424 3.3335 12.7655 3.3335 12.8639 3.34324C13.8125 3.43723 14.5629 4.18768 14.6569 5.1363C14.6667 5.23466 14.6667 5.35143 14.6667 5.58498V10.8002C14.6667 11.9203 14.6667 12.4803 14.4487 12.9081C14.2569 13.2845 13.951 13.5904 13.5747 13.7822C13.1468 14.0002 12.5868 14.0002 11.4667 14.0002H4.53334C3.41324 14.0002 2.85319 14.0002 2.42536 13.7822C2.04904 13.5904 1.74308 13.2845 1.55133 12.9081C1.33334 12.4803 1.33334 11.9203 1.33334 10.8002V5.58498Z" stroke="#17191C" stroke-linecap="round" stroke-linejoin="round"/>
<path d="M8.00001 11.0002C9.47277 11.0002 10.6667 9.80626 10.6667 8.3335C10.6667 6.86074 9.47277 5.66683 8.00001 5.66683C6.52725 5.66683 5.33334 6.86074 5.33334 8.3335C5.33334 9.80626 6.52725 11.0002 8.00001 11.0002Z" stroke="#17191C" stroke-linecap="round" stroke-linejoin="round"/>
</svg>
