<svg width="29" height="29" viewBox="0 0 29 29" fill="none" xmlns="http://www.w3.org/2000/svg">
<path d="M16.3727 9.46914C15.6094 10.0133 14.6754 10.3333 13.6667 10.3333C11.0893 10.3333 9 8.244 9 5.66667C9 3.08934 11.0893 1 13.6667 1C15.3373 1 16.8029 1.87789 17.6273 3.19752M6.33333 25.1162H9.81372C10.2675 25.1162 10.7185 25.1702 11.1584 25.2782L14.8359 26.1718C15.6338 26.3662 16.465 26.3851 17.2713 26.2285L21.3373 25.4375C22.4114 25.2282 23.3994 24.7139 24.1738 23.9607L27.0505 21.1623C27.872 20.3645 27.872 19.0699 27.0505 18.2708C26.3109 17.5512 25.1396 17.4702 24.3028 18.0804L20.9501 20.5265C20.47 20.8775 19.8857 21.0664 19.2849 21.0664H16.0473L18.1081 21.0663C19.2696 21.0663 20.2105 20.1511 20.2105 19.0212V18.6122C20.2105 17.674 19.5541 16.8559 18.6188 16.6292L15.4381 15.8557C14.9205 15.7301 14.3904 15.6667 13.8575 15.6667C12.5711 15.6667 10.2425 16.7318 10.2425 16.7318L6.33333 18.3665M25 7C25 9.57733 22.9107 11.6667 20.3333 11.6667C17.756 11.6667 15.6667 9.57733 15.6667 7C15.6667 4.42267 17.756 2.33333 20.3333 2.33333C22.9107 2.33333 25 4.42267 25 7ZM1 17.8L1 25.5333C1 26.2801 1 26.6534 1.14532 26.9387C1.27316 27.1895 1.47713 27.3935 1.72801 27.5213C2.01323 27.6667 2.3866 27.6667 3.13333 27.6667H4.2C4.94674 27.6667 5.3201 27.6667 5.60532 27.5213C5.8562 27.3935 6.06018 27.1895 6.18801 26.9387C6.33333 26.6534 6.33333 26.2801 6.33333 25.5333V17.8C6.33333 17.0533 6.33333 16.6799 6.18801 16.3947C6.06018 16.1438 5.8562 15.9398 5.60532 15.812C5.32011 15.6667 4.94674 15.6667 4.2 15.6667L3.13333 15.6667C2.3866 15.6667 2.01323 15.6667 1.72801 15.812C1.47713 15.9398 1.27316 16.1438 1.14532 16.3947C1 16.6799 1 17.0533 1 17.8Z" stroke="#1D1D20" stroke-width="2" stroke-linecap="round" stroke-linejoin="round"/>
</svg>
