<svg width="16" height="16" viewBox="0 0 16 16" fill="none" xmlns="http://www.w3.org/2000/svg">
<g clip-path="url(#clip0_762_1640)">
<path d="M8.00001 13.6483C8.70768 14.2817 9.6422 14.6668 10.6667 14.6668C12.8758 14.6668 14.6667 12.876 14.6667 10.6668C14.6667 8.82221 13.4181 7.26922 11.7199 6.80695M4.28013 6.80694C2.58197 7.26921 1.33334 8.8222 1.33334 10.6668C1.33334 12.876 3.1242 14.6668 5.33334 14.6668C7.54248 14.6668 9.33334 12.876 9.33334 10.6668C9.33334 10.1465 9.23399 9.64937 9.05322 9.19339M12 5.3335C12 7.54264 10.2091 9.3335 8.00001 9.3335C5.79087 9.3335 4.00001 7.54264 4.00001 5.3335C4.00001 3.12436 5.79087 1.3335 8.00001 1.3335C10.2091 1.3335 12 3.12436 12 5.3335Z" stroke="#17191C" stroke-linecap="round" stroke-linejoin="round"/>
</g>
<defs>
<clipPath id="clip0_762_1640">
<rect width="16" height="16" fill="white"/>
</clipPath>
</defs>
</svg>
