<svg width="16" height="16" viewBox="0 0 16 16" fill="none" xmlns="http://www.w3.org/2000/svg">
<path d="M8.00001 8.66663C8.3682 8.66663 8.66668 8.36815 8.66668 7.99996C8.66668 7.63177 8.3682 7.33329 8.00001 7.33329C7.63182 7.33329 7.33334 7.63177 7.33334 7.99996C7.33334 8.36815 7.63182 8.66663 8.00001 8.66663Z" stroke="#17191C" stroke-linecap="round" stroke-linejoin="round"/>
<path d="M8.00001 3.99996C8.3682 3.99996 8.66668 3.70148 8.66668 3.33329C8.66668 2.9651 8.3682 2.66663 8.00001 2.66663C7.63182 2.66663 7.33334 2.9651 7.33334 3.33329C7.33334 3.70148 7.63182 3.99996 8.00001 3.99996Z" stroke="#17191C" stroke-linecap="round" stroke-linejoin="round"/>
<path d="M8.00001 13.3333C8.3682 13.3333 8.66668 13.0348 8.66668 12.6666C8.66668 12.2984 8.3682 12 8.00001 12C7.63182 12 7.33334 12.2984 7.33334 12.6666C7.33334 13.0348 7.63182 13.3333 8.00001 13.3333Z" stroke="#17191C" stroke-linecap="round" stroke-linejoin="round"/>
</svg>
