<svg width="16" height="16" viewBox="0 0 16 16" fill="none" xmlns="http://www.w3.org/2000/svg">
<g clip-path="url(#clip0_746_270)">
<path d="M7.33334 2.66666H4.53334C3.41323 2.66666 2.85318 2.66666 2.42535 2.88464C2.04903 3.07639 1.74307 3.38235 1.55132 3.75867C1.33334 4.1865 1.33334 4.74655 1.33334 5.86666V11.4667C1.33334 12.5868 1.33334 13.1468 1.55132 13.5746C1.74307 13.951 2.04903 14.2569 2.42535 14.4487C2.85318 14.6667 3.41323 14.6667 4.53334 14.6667H10.1333C11.2534 14.6667 11.8135 14.6667 12.2413 14.4487C12.6176 14.2569 12.9236 13.951 13.1153 13.5746C13.3333 13.1468 13.3333 12.5868 13.3333 11.4667V8.66666M5.33332 10.6667H6.44968C6.7758 10.6667 6.93886 10.6667 7.09231 10.6298C7.22836 10.5972 7.35842 10.5433 7.47772 10.4702C7.61227 10.3877 7.72757 10.2724 7.95817 10.0418L14.3333 3.66666C14.8856 3.11437 14.8856 2.21894 14.3333 1.66666C13.7811 1.11437 12.8856 1.11437 12.3333 1.66665L5.95816 8.04182C5.72756 8.27242 5.61225 8.38772 5.5298 8.52228C5.45669 8.64157 5.40282 8.77163 5.37016 8.90768C5.33332 9.06113 5.33332 9.22419 5.33332 9.55031V10.6667Z" stroke="#17191C" stroke-linecap="round" stroke-linejoin="round"/>
</g>
<defs>
<clipPath id="clip0_746_270">
<rect width="16" height="16" fill="white"/>
</clipPath>
</defs>
</svg>
