<svg width="16" height="16" viewBox="0 0 16 16" fill="none" xmlns="http://www.w3.org/2000/svg">
<path d="M12 6.66671L9.33333 4.00004M1.66665 14.3334L3.92289 14.0827C4.19855 14.0521 4.33638 14.0367 4.46521 13.995C4.57951 13.958 4.68828 13.9058 4.78857 13.8396C4.90162 13.7651 4.99968 13.667 5.1958 13.4709L14 4.66671C14.7364 3.93033 14.7364 2.73642 14 2.00004C13.2636 1.26366 12.0697 1.26366 11.3333 2.00004L2.52913 10.8042C2.33301 11.0003 2.23495 11.0984 2.16041 11.2114C2.09427 11.3117 2.04199 11.4205 2.00499 11.5348C1.96329 11.6636 1.94797 11.8015 1.91734 12.0771L1.66665 14.3334Z" stroke="#17191C" stroke-linecap="round" stroke-linejoin="round"/>
</svg>
