<svg width="16" height="16" viewBox="0 0 16 16" fill="none" xmlns="http://www.w3.org/2000/svg">
<path d="M11.9997 8.66669L7.33302 4.00002M13.9997 14H5.33302M7.29119 13.3752L13.0703 7.5961C13.8623 6.80406 14.2583 6.40805 14.4067 5.95139C14.5372 5.5497 14.5372 5.11701 14.4067 4.71532C14.2583 4.25867 13.8623 3.86265 13.0703 3.07062L12.9291 2.92943C12.1371 2.1374 11.741 1.74138 11.2844 1.593C10.8827 1.46249 10.45 1.46249 10.0483 1.593C9.59166 1.74138 9.19565 2.1374 8.40361 2.92943L2.9291 8.40395C2.13706 9.19598 1.74105 9.592 1.59267 10.0487C1.46215 10.4503 1.46215 10.883 1.59267 11.2847C1.74105 11.7414 2.13706 12.1374 2.92909 12.9294L3.37485 13.3752C3.60545 13.6058 3.72075 13.7211 3.85531 13.8035C3.9746 13.8766 4.10466 13.9305 4.24071 13.9632C4.39416 14 4.55722 14 4.88334 14H5.7827C6.10882 14 6.27188 14 6.42533 13.9632C6.56138 13.9305 6.69144 13.8766 6.81073 13.8035C6.94529 13.7211 7.06059 13.6058 7.29119 13.3752Z" stroke="#17191C" stroke-linecap="round" stroke-linejoin="round"/>
</svg>
