<svg width="16" height="16" viewBox="0 0 16 16" fill="none" xmlns="http://www.w3.org/2000/svg">
<g clip-path="url(#clip0_762_1481)">
<path d="M5.33334 9.3335C5.33334 9.3335 6.33334 10.6668 8.00001 10.6668C9.66668 10.6668 10.6667 9.3335 10.6667 9.3335M10 6.00016H10.0067M6.00001 6.00016H6.00668M14.6667 8.00016C14.6667 11.6821 11.6819 14.6668 8.00001 14.6668C4.31811 14.6668 1.33334 11.6821 1.33334 8.00016C1.33334 4.31826 4.31811 1.3335 8.00001 1.3335C11.6819 1.3335 14.6667 4.31826 14.6667 8.00016ZM10.3333 6.00016C10.3333 6.18426 10.1841 6.3335 10 6.3335C9.81591 6.3335 9.66668 6.18426 9.66668 6.00016C9.66668 5.81607 9.81591 5.66683 10 5.66683C10.1841 5.66683 10.3333 5.81607 10.3333 6.00016ZM6.33334 6.00016C6.33334 6.18426 6.1841 6.3335 6.00001 6.3335C5.81591 6.3335 5.66668 6.18426 5.66668 6.00016C5.66668 5.81607 5.81591 5.66683 6.00001 5.66683C6.1841 5.66683 6.33334 5.81607 6.33334 6.00016Z" stroke="#17191C" stroke-linecap="round" stroke-linejoin="round"/>
</g>
<defs>
<clipPath id="clip0_762_1481">
<rect width="16" height="16" fill="white"/>
</clipPath>
</defs>
</svg>
