<svg width="16" height="16" viewBox="0 0 16 16" fill="none" xmlns="http://www.w3.org/2000/svg">
<path d="M8.66668 10.9578C8.66668 11.7112 8.66668 12.0879 8.81885 12.2725C8.95106 12.433 9.15054 12.5226 9.35828 12.5148C9.5974 12.5058 9.87893 12.2556 10.442 11.7551L13.7698 8.79705C14.08 8.52132 14.2351 8.38346 14.2922 8.22067C14.3424 8.07771 14.3424 7.92192 14.2922 7.77896C14.2351 7.61617 14.08 7.4783 13.7698 7.20258L10.442 4.24454C9.87893 3.74404 9.5974 3.49379 9.35828 3.48484C9.15054 3.47707 8.95106 3.56665 8.81885 3.72708C8.66668 3.91175 8.66668 4.28843 8.66668 5.04178V10.9578Z" stroke="#17191C" stroke-linecap="round" stroke-linejoin="round"/>
<path d="M1.33334 10.9578C1.33334 11.7112 1.33334 12.0879 1.48552 12.2725C1.61772 12.433 1.8172 12.5226 2.02494 12.5148C2.26407 12.5058 2.5456 12.2556 3.10866 11.7551L6.43645 8.79705C6.74664 8.52132 6.90174 8.38346 6.9589 8.22067C7.00909 8.07771 7.00909 7.92192 6.9589 7.77896C6.90174 7.61617 6.74664 7.4783 6.43645 7.20258L3.10866 4.24454C2.5456 3.74404 2.26407 3.49379 2.02494 3.48484C1.8172 3.47707 1.61772 3.56665 1.48552 3.72708C1.33334 3.91175 1.33334 4.28843 1.33334 5.04178V10.9578Z" stroke="#17191C" stroke-linecap="round" stroke-linejoin="round"/>
</svg>
