<svg width="16" height="16" viewBox="0 0 16 16" fill="none" xmlns="http://www.w3.org/2000/svg">
<path fill-rule="evenodd" clip-rule="evenodd" d="M5.44004 0H10.56C12.1498 0 13.44 1.29017 13.44 2.88002C13.44 3.99415 12.8064 4.96107 11.8801 5.43998C12.8064 5.9189 13.44 6.88585 13.44 7.99998C13.44 9.58983 12.1498 10.88 10.56 10.88C9.65559 10.88 8.8482 10.4625 8.32008 9.80993V13.12C8.32008 14.7098 7.0299 16 5.44004 16C3.85018 16 2.56 14.7098 2.56 13.12C2.56 12.0058 3.19359 11.0389 4.1199 10.56C3.19359 10.0811 2.56 9.11411 2.56 7.99998C2.56 6.88585 3.19358 5.9189 4.11989 5.43998C3.19359 4.96107 2.56 3.99415 2.56 2.88002C2.56 1.29017 3.85018 0 5.44004 0ZM3.2 2.88002C3.2 1.64363 4.20364 0.64 5.44004 0.64H7.67992V5.11996H5.44004L5.43309 5.11997C4.19987 5.11622 3.2 4.11408 3.2 2.88002ZM7.68008 7.96952C7.67997 7.97966 7.67992 7.98981 7.67992 7.99998C7.67992 8.01015 7.67997 8.0203 7.68008 8.03044V10.2399H5.44002C4.20364 10.24 3.2 9.23637 3.2 7.99998C3.2 6.76589 4.19991 5.76369 5.43315 5.75997L5.44004 5.75998H7.67992L7.68008 7.96952ZM8.32008 8.02681V7.97315C8.33443 6.75216 9.32754 5.76489 10.5508 5.75998H10.56C10.5623 5.75998 10.5645 5.75998 10.5668 5.75997C11.8001 5.76369 12.8 6.76589 12.8 7.99998C12.8 9.23637 11.7964 10.24 10.56 10.24C9.33251 10.24 8.33447 9.25085 8.32008 8.02681ZM8.75017 5.75998C8.59216 5.88782 8.44793 6.03204 8.32008 6.19004V5.75998H8.75017ZM10.5669 5.11997C10.5646 5.11996 10.5623 5.11996 10.56 5.11996C10.5565 5.11996 10.553 5.11997 10.5495 5.11998H8.32008V0.64H10.56C11.7964 0.64 12.8 1.64363 12.8 2.88002C12.8 4.11408 11.8001 5.11622 10.5669 5.11997ZM5.44004 10.88C4.20364 10.88 3.2 11.8836 3.2 13.12C3.2 14.3564 4.20364 15.36 5.44004 15.36C6.67644 15.36 7.68008 14.3564 7.68008 13.12V10.88H5.44004Z" fill="#17191C"/>
</svg>
