<svg width="16" height="16" viewBox="0 0 16 16" fill="none" xmlns="http://www.w3.org/2000/svg">
<g clip-path="url(#clip0_778_27)">
<path d="M5.33338 16.0004C6.80539 16.0004 8.00009 14.8057 8.00009 13.3337V10.667H5.33338C3.86137 10.667 2.66667 11.8617 2.66667 13.3337C2.66667 14.8057 3.86137 16.0004 5.33338 16.0004Z" fill="#0ACF83"/>
<path d="M2.66667 7.9997C2.66667 6.5277 3.86137 5.33301 5.33338 5.33301H8.00009V10.6663H5.33338C3.86137 10.6664 2.66667 9.4717 2.66667 7.9997Z" fill="#A259FF"/>
<path d="M2.66667 2.66669C2.66667 1.19469 3.86137 0 5.33338 0H8.00009V5.33331H5.33338C3.86137 5.33331 2.66667 4.13869 2.66667 2.66669Z" fill="#F24E1E"/>
<path d="M7.99992 0H10.6666C12.1386 0 13.3333 1.19469 13.3333 2.66669C13.3333 4.13869 12.1386 5.33331 10.6666 5.33331H7.99992V0Z" fill="#FF7262"/>
<path d="M13.3333 7.9997C13.3333 9.4717 12.1386 10.6664 10.6666 10.6664C9.19462 10.6664 7.99992 9.4717 7.99992 7.9997C7.99992 6.5277 9.19462 5.33301 10.6666 5.33301C12.1386 5.33301 13.3333 6.5277 13.3333 7.9997Z" fill="#1ABCFE"/>
</g>
<defs>
<clipPath id="clip0_778_27">
<rect width="16" height="16" fill="white"/>
</clipPath>
</defs>
</svg>
