<svg width="16" height="16" viewBox="0 0 16 16" fill="none" xmlns="http://www.w3.org/2000/svg">
<path d="M9.33333 7.3335H5.33333M6.66666 10.0002H5.33333M10.6667 4.66683H5.33333M13.3333 7.00016V4.5335C13.3333 3.41339 13.3333 2.85334 13.1153 2.42552C12.9236 2.04919 12.6176 1.74323 12.2413 1.55148C11.8135 1.3335 11.2534 1.3335 10.1333 1.3335H5.86666C4.74656 1.3335 4.18651 1.3335 3.75868 1.55148C3.38236 1.74323 3.0764 2.04919 2.88465 2.42552C2.66666 2.85334 2.66666 3.41339 2.66666 4.5335V11.4668C2.66666 12.5869 2.66666 13.147 2.88465 13.5748C3.0764 13.9511 3.38236 14.2571 3.75868 14.4488C4.18651 14.6668 4.74656 14.6668 5.86666 14.6668H7.66666M14.6667 14.6668L13.6667 13.6668M14.3333 12.0002C14.3333 13.2888 13.2887 14.3335 12 14.3335C10.7113 14.3335 9.66666 13.2888 9.66666 12.0002C9.66666 10.7115 10.7113 9.66683 12 9.66683C13.2887 9.66683 14.3333 10.7115 14.3333 12.0002Z" stroke="#17191C" stroke-linecap="round" stroke-linejoin="round"/>
</svg>
