<svg width="16" height="16" viewBox="0 0 16 16" fill="none" xmlns="http://www.w3.org/2000/svg">
<path d="M13.3333 6.66683V4.5335C13.3333 3.41339 13.3333 2.85334 13.1153 2.42552C12.9236 2.04919 12.6176 1.74323 12.2413 1.55148C11.8135 1.3335 11.2534 1.3335 10.1333 1.3335H5.86666C4.74656 1.3335 4.18651 1.3335 3.75868 1.55148C3.38236 1.74323 3.0764 2.04919 2.88465 2.42552C2.66666 2.85334 2.66666 3.41339 2.66666 4.5335V11.4668C2.66666 12.5869 2.66666 13.147 2.88465 13.5748C3.0764 13.9511 3.38236 14.2571 3.75868 14.4488C4.18651 14.6668 4.74656 14.6668 5.86666 14.6668H7M8.66666 7.3335H5.33333M7.33333 10.0002H5.33333M10.6667 4.66683H5.33333M12.8333 11.3335V10.1668C12.8333 9.5225 12.311 9.00016 11.6667 9.00016C11.0223 9.00016 10.5 9.5225 10.5 10.1668V11.3335M10.4 14.0002H12.9333C13.3067 14.0002 13.4934 14.0002 13.636 13.9275C13.7614 13.8636 13.8634 13.7616 13.9273 13.6362C14 13.4935 14 13.3069 14 12.9335V12.4002C14 12.0268 14 11.8401 13.9273 11.6975C13.8634 11.5721 13.7614 11.4701 13.636 11.4062C13.4934 11.3335 13.3067 11.3335 12.9333 11.3335H10.4C10.0266 11.3335 9.83994 11.3335 9.69734 11.4062C9.5719 11.4701 9.46991 11.5721 9.40599 11.6975C9.33333 11.8401 9.33333 12.0268 9.33333 12.4002V12.9335C9.33333 13.3069 9.33333 13.4935 9.40599 13.6362C9.46991 13.7616 9.5719 13.8636 9.69734 13.9275C9.83994 14.0002 10.0266 14.0002 10.4 14.0002Z" stroke="#17191C" stroke-linecap="round" stroke-linejoin="round"/>
</svg>
