<svg width="16" height="16" viewBox="0 0 16 16" fill="none" xmlns="http://www.w3.org/2000/svg">
<path d="M13.3333 6.3335V4.5335C13.3333 3.41339 13.3333 2.85334 13.1153 2.42552C12.9236 2.04919 12.6176 1.74323 12.2413 1.55148C11.8135 1.3335 11.2534 1.3335 10.1333 1.3335H5.86666C4.74655 1.3335 4.1865 1.3335 3.75868 1.55148C3.38235 1.74323 3.07639 2.04919 2.88464 2.42552C2.66666 2.85334 2.66666 3.41339 2.66666 4.5335V11.4668C2.66666 12.5869 2.66666 13.147 2.88464 13.5748C3.07639 13.9511 3.38235 14.2571 3.75868 14.4488C4.1865 14.6668 4.74655 14.6668 5.86666 14.6668H9.33332M9.33332 7.3335H5.33332M6.66666 10.0002H5.33332M10.6667 4.66683H5.33332M11 10.0017C11.1175 9.66774 11.3493 9.38617 11.6545 9.20681C11.9597 9.02746 12.3185 8.9619 12.6673 9.02174C13.0162 9.08158 13.3327 9.26297 13.5606 9.53377C13.7886 9.80457 13.9133 10.1473 13.9128 10.5013C13.9128 11.5005 12.4139 12.0002 12.4139 12.0002M12.4333 14.0002H12.4399" stroke="#17191C" stroke-linecap="round" stroke-linejoin="round"/>
</svg>
