<svg width="16" height="16" viewBox="0 0 16 16" fill="none" xmlns="http://www.w3.org/2000/svg">
<path d="M9.33332 7.3335H5.33332M6.66666 10.0002H5.33332M10.6667 4.66683H5.33332M13.3333 8.00016V4.5335C13.3333 3.41339 13.3333 2.85334 13.1153 2.42552C12.9236 2.04919 12.6176 1.74323 12.2413 1.55148C11.8135 1.3335 11.2534 1.3335 10.1333 1.3335H5.86666C4.74655 1.3335 4.1865 1.3335 3.75868 1.55148C3.38235 1.74323 3.07639 2.04919 2.88464 2.42552C2.66666 2.85334 2.66666 3.41339 2.66666 4.5335V11.4668C2.66666 12.5869 2.66666 13.147 2.88464 13.5748C3.07639 13.9511 3.38235 14.2571 3.75868 14.4488C4.1865 14.6668 4.74655 14.6668 5.86666 14.6668H7.99999M10.6667 10.6668L14 14.0002M14 10.6668L10.6667 14.0002" stroke="#17191C" stroke-linecap="round" stroke-linejoin="round"/>
</svg>
