<svg width="16" height="16" viewBox="0 0 16 16" fill="none" xmlns="http://www.w3.org/2000/svg">
<path d="M9.33332 1.51318V4.26688C9.33332 4.64025 9.33332 4.82693 9.40599 4.96954C9.4699 5.09498 9.57189 5.19697 9.69733 5.26088C9.83994 5.33354 10.0266 5.33354 10.4 5.33354H13.1537M5.99999 10.0002L7.99999 12.0002M7.99999 12.0002L9.99999 10.0002M7.99999 12.0002L7.99999 8.00016M9.33332 1.3335H5.86666C4.74655 1.3335 4.1865 1.3335 3.75868 1.55148C3.38235 1.74323 3.07639 2.04919 2.88464 2.42552C2.66666 2.85334 2.66666 3.41339 2.66666 4.5335V11.4668C2.66666 12.5869 2.66666 13.147 2.88464 13.5748C3.07639 13.9511 3.38235 14.2571 3.75868 14.4488C4.1865 14.6668 4.74655 14.6668 5.86666 14.6668H10.1333C11.2534 14.6668 11.8135 14.6668 12.2413 14.4488C12.6176 14.2571 12.9236 13.9511 13.1153 13.5748C13.3333 13.147 13.3333 12.5869 13.3333 11.4668V5.3335L9.33332 1.3335Z" stroke="#17191C" stroke-linecap="round" stroke-linejoin="round"/>
</svg>
