<svg width="16" height="16" viewBox="0 0 16 16" fill="none" xmlns="http://www.w3.org/2000/svg">
<g clip-path="url(#clip0_762_1526)">
<path d="M1.33334 8.00016H14.6667M1.33334 4.66683H4.66668M11.3333 4.66683H14.6667M1.33334 11.3335H4.66668M11.3333 11.3335H14.6667M4.66668 14.6668V1.3335M11.3333 14.6668V1.3335M4.53334 14.6668H11.4667C12.5868 14.6668 13.1468 14.6668 13.5747 14.4488C13.951 14.2571 14.2569 13.9511 14.4487 13.5748C14.6667 13.147 14.6667 12.5869 14.6667 11.4668V4.5335C14.6667 3.41339 14.6667 2.85334 14.4487 2.42552C14.2569 2.04919 13.951 1.74323 13.5747 1.55148C13.1468 1.3335 12.5868 1.3335 11.4667 1.3335H4.53334C3.41324 1.3335 2.85319 1.3335 2.42536 1.55148C2.04904 1.74323 1.74308 2.04919 1.55133 2.42552C1.33334 2.85334 1.33334 3.41339 1.33334 4.5335V11.4668C1.33334 12.5869 1.33334 13.147 1.55133 13.5748C1.74308 13.9511 2.04904 14.2571 2.42536 14.4488C2.85319 14.6668 3.41324 14.6668 4.53334 14.6668Z" stroke="#17191C" stroke-linecap="round" stroke-linejoin="round"/>
</g>
<defs>
<clipPath id="clip0_762_1526">
<rect width="16" height="16" fill="white"/>
</clipPath>
</defs>
</svg>
