<svg width="16" height="16" viewBox="0 0 16 16" fill="none" xmlns="http://www.w3.org/2000/svg">
<path d="M5.39999 14.1475C4.47341 12.8251 3.92832 11.2164 3.92832 9.47927C3.92832 7.22968 5.75094 5.40638 7.99917 5.40638C10.2474 5.40638 12.07 7.22968 12.07 9.47927M12.2907 13.5413C12.2173 13.5454 12.1454 13.5522 12.0714 13.5522C9.82316 13.5522 8.00055 11.7289 8.00055 9.47927M8.84627 14.6668C7.11665 13.5881 5.9647 11.6684 5.9647 9.47927C5.9647 8.35447 6.87635 7.44283 8.00047 7.44283C9.12458 7.44283 10.0362 8.35447 10.0362 9.47927C10.0362 10.6041 10.9479 11.5157 12.072 11.5157C13.1961 11.5157 14.1078 10.6041 14.1078 9.47927C14.1078 6.10488 11.3735 3.36994 8.00115 3.36994C4.6288 3.36994 1.89453 6.10488 1.89453 9.47927C1.89453 10.2314 1.9787 10.9638 2.13347 11.6698M13.6838 3.90892C12.2957 2.33203 10.266 1.3335 8.00012 1.3335C5.73424 1.3335 3.70458 2.33203 2.31641 3.90892" stroke="#17191C" stroke-linecap="round" stroke-linejoin="round"/>
</svg>
