<svg width="16" height="16" viewBox="0 0 16 16" fill="none" xmlns="http://www.w3.org/2000/svg">
<path d="M8.66667 4.66667L7.92297 3.17928C7.70894 2.7512 7.60191 2.53715 7.44225 2.38078C7.30105 2.24249 7.13088 2.13732 6.94405 2.07287C6.73278 2 6.49347 2 6.01486 2H3.46667C2.71993 2 2.34656 2 2.06135 2.14532C1.81047 2.27316 1.60649 2.47713 1.47866 2.72801C1.33334 3.01323 1.33334 3.3866 1.33334 4.13333V4.66667M1.33334 4.66667H11.4667C12.5868 4.66667 13.1468 4.66667 13.5746 4.88465C13.951 5.0764 14.2569 5.38236 14.4487 5.75869C14.6667 6.18651 14.6667 6.74656 14.6667 7.86667V10.8C14.6667 11.9201 14.6667 12.4802 14.4487 12.908C14.2569 13.2843 13.951 13.5903 13.5746 13.782C13.1468 14 12.5868 14 11.4667 14H4.53334C3.41323 14 2.85318 14 2.42535 13.782C2.04903 13.5903 1.74307 13.2843 1.55132 12.908C1.33334 12.4802 1.33334 11.9201 1.33334 10.8V4.66667ZM6 9.33333L8 11.3333M8 11.3333L10 9.33333M8 11.3333V7.33333" stroke="#17191C" stroke-linecap="round" stroke-linejoin="round"/>
</svg>
