<svg width="16" height="16" viewBox="0 0 16 16" fill="none" xmlns="http://www.w3.org/2000/svg">
<path d="M6.66668 9.68949C7.48903 9.21418 8.5109 9.21418 9.33326 9.68949M1.33334 9.99967L1.801 5.32308C1.81873 5.14578 1.8276 5.05712 1.8412 4.98106C2.00149 4.08435 2.74748 3.40924 3.65569 3.33897C3.73272 3.33301 3.82182 3.33301 4.00001 3.33301M14.6667 9.99967L14.199 5.32308C14.1813 5.14578 14.1724 5.05712 14.1588 4.98106C13.9985 4.08435 13.2525 3.40924 12.3443 3.33897C12.2673 3.33301 12.1782 3.33301 12 3.33301M5.88563 8.11405C6.92703 9.15545 6.92703 10.8439 5.88563 11.8853C4.84423 12.9267 3.15579 12.9267 2.11439 11.8853C1.07299 10.8439 1.07299 9.15546 2.11439 8.11405C3.15579 7.07266 4.84423 7.07266 5.88563 8.11405ZM13.8856 8.11405C14.927 9.15545 14.927 10.8439 13.8856 11.8853C12.8442 12.9267 11.1558 12.9267 10.1144 11.8853C9.07299 10.8439 9.07299 9.15546 10.1144 8.11405C11.1558 7.07266 12.8442 7.07266 13.8856 8.11405Z" stroke="#17191C" stroke-linecap="round" stroke-linejoin="round"/>
</svg>
