<svg width="16" height="16" viewBox="0 0 16 16" fill="none" xmlns="http://www.w3.org/2000/svg">
<g clip-path="url(#clip0_772_443)">
<path d="M7.99988 6.5459V9.64409H12.3053C12.1163 10.6404 11.5489 11.4841 10.698 12.0514L13.2944 14.0659C14.8071 12.6696 15.6798 10.6187 15.6798 8.18234C15.6798 7.61508 15.6289 7.06957 15.5344 6.54599L7.99988 6.5459Z" fill="#4285F4"/>
<path d="M3.51645 9.52246L2.93087 9.97071L0.858109 11.5852C2.17447 14.1961 4.87245 15.9998 7.9997 15.9998C10.1596 15.9998 11.9705 15.287 13.2942 14.0653L10.6978 12.0507C9.98512 12.5307 9.07602 12.8216 7.9997 12.8216C5.91971 12.8216 4.15249 11.418 3.51972 9.52708L3.51645 9.52246Z" fill="#34A853"/>
<path d="M0.858119 4.41406C0.312695 5.49038 0 6.70494 0 7.99947C0 9.29399 0.312695 10.5086 0.858119 11.5849C0.858119 11.5921 3.51998 9.51942 3.51998 9.51942C3.35998 9.03942 3.26541 8.53036 3.26541 7.99939C3.26541 7.46841 3.35998 6.95935 3.51998 6.47935L0.858119 4.41406Z" fill="#FBBC05"/>
<path d="M7.99986 3.18545C9.17806 3.18545 10.2253 3.59271 11.0617 4.37818L13.3526 2.0873C11.9635 0.792777 10.1599 0 7.99986 0C4.87261 0 2.17447 1.79636 0.858109 4.41455L3.51989 6.48001C4.15258 4.58908 5.91987 3.18545 7.99986 3.18545Z" fill="#EA4335"/>
</g>
<defs>
<clipPath id="clip0_772_443">
<rect width="16" height="16" fill="white"/>
</clipPath>
</defs>
</svg>
