<svg width="16" height="16" viewBox="0 0 16 16" fill="none" xmlns="http://www.w3.org/2000/svg">
<path d="M11.3333 9.66704V7.66332C11.3333 7.54367 11.3333 7.48384 11.3151 7.43102C11.299 7.38432 11.2727 7.34177 11.2381 7.30647C11.1991 7.26656 11.1455 7.2398 11.0385 7.18629L8.00001 5.66704M2.66668 6.3337V10.8714C2.66668 11.1194 2.66668 11.2434 2.70536 11.3519C2.73955 11.4479 2.79528 11.5347 2.86826 11.6058C2.95082 11.6862 3.06353 11.7378 3.28891 11.8411L7.55558 13.7967C7.71907 13.8716 7.80081 13.9091 7.88597 13.9239C7.96143 13.937 8.03859 13.937 8.11405 13.9239C8.19921 13.9091 8.28095 13.8716 8.44444 13.7967L12.7111 11.8411C12.9365 11.7378 13.0492 11.6862 13.1318 11.6058C13.2047 11.5347 13.2605 11.4479 13.2947 11.3519C13.3333 11.2434 13.3333 11.1194 13.3333 10.8714V6.3337M1.33334 5.66704L7.7615 2.45296C7.84895 2.40923 7.89268 2.38737 7.93854 2.37876C7.97917 2.37114 8.02085 2.37114 8.06148 2.37876C8.10734 2.38737 8.15107 2.40923 8.23852 2.45296L14.6667 5.66704L8.23852 8.88111C8.15107 8.92484 8.10734 8.9467 8.06148 8.95531C8.02085 8.96293 7.97917 8.96293 7.93854 8.95531C7.89268 8.9467 7.84895 8.92484 7.7615 8.88111L1.33334 5.66704Z" stroke="#17191C" stroke-linecap="round" stroke-linejoin="round"/>
</svg>
