<svg width="16" height="16" viewBox="0 0 16 16" fill="none" xmlns="http://www.w3.org/2000/svg">
<g clip-path="url(#clip0_752_1458)">
<path d="M4 13.3914H5.7402C5.96709 13.3914 6.19259 13.4184 6.41254 13.4724L8.25126 13.9192C8.65023 14.0164 9.06585 14.0259 9.46898 13.9476L11.502 13.552C12.039 13.4474 12.5331 13.1903 12.9202 12.8136L14.3586 11.4144C14.7694 11.0155 14.7694 10.3683 14.3586 9.96868C13.9888 9.60893 13.4032 9.56843 12.9848 9.87351L11.3084 11.0965C11.0683 11.272 10.7762 11.3665 10.4758 11.3665H8.857L9.88738 11.3665C10.4681 11.3665 10.9386 10.9089 10.9386 10.3439V10.1394C10.9386 9.6703 10.6104 9.26128 10.1427 9.14788L8.5524 8.76113C8.29359 8.69836 8.02854 8.66664 7.7621 8.66664C7.11889 8.66664 5.9546 9.19918 5.9546 9.19918L4 10.0166M1.33334 9.7333L1.33334 13.6C1.33334 13.9733 1.33334 14.16 1.406 14.3026C1.46991 14.4281 1.5719 14.5301 1.69734 14.594C1.83995 14.6666 2.02663 14.6666 2.4 14.6666H2.93334C3.3067 14.6666 3.49339 14.6666 3.636 14.594C3.76144 14.5301 3.86342 14.4281 3.92734 14.3026C4 14.16 4 13.9733 4 13.6V9.7333C4 9.35994 4 9.17325 3.92734 9.03064C3.86342 8.9052 3.76144 8.80322 3.636 8.7393C3.49339 8.66664 3.3067 8.66664 2.93334 8.66664H2.4C2.02663 8.66664 1.83995 8.66664 1.69734 8.7393C1.5719 8.80322 1.46991 8.9052 1.406 9.03064C1.33334 9.17325 1.33334 9.35994 1.33334 9.7333ZM11.4609 2.39481C11.063 1.56224 10.1457 1.12116 9.25363 1.54689C8.36153 1.97261 7.98147 2.98222 8.35497 3.86852C8.58581 4.41628 9.24717 5.47997 9.71873 6.21266C9.89297 6.48338 9.98008 6.61874 10.1073 6.69792C10.2165 6.76584 10.3531 6.80245 10.4816 6.79821C10.6314 6.79325 10.7745 6.71959 11.0608 6.57226C11.8355 6.17351 12.9401 5.58301 13.4139 5.22405C14.1805 4.64325 14.3704 3.57569 13.7964 2.76413C13.2225 1.95257 12.2218 1.87272 11.4609 2.39481Z" stroke="#17191C" stroke-linecap="round" stroke-linejoin="round"/>
</g>
<defs>
<clipPath id="clip0_752_1458">
<rect width="16" height="16" fill="white"/>
</clipPath>
</defs>
</svg>
