<svg width="16" height="16" viewBox="0 0 16 16" fill="none" xmlns="http://www.w3.org/2000/svg">
<g clip-path="url(#clip0_752_1461)">
<path d="M6.06 6.00004C6.21674 5.55449 6.5261 5.17878 6.93331 4.93946C7.34051 4.70015 7.81927 4.61267 8.28479 4.69252C8.75031 4.77236 9.17255 5.01439 9.47672 5.37573C9.78089 5.73706 9.94737 6.19439 9.94667 6.66671C9.94667 8.00004 7.94667 8.66671 7.94667 8.66671M8 11.3334H8.00667M14.6667 8.00004C14.6667 11.6819 11.6819 14.6667 8 14.6667C4.3181 14.6667 1.33334 11.6819 1.33334 8.00004C1.33334 4.31814 4.3181 1.33337 8 1.33337C11.6819 1.33337 14.6667 4.31814 14.6667 8.00004Z" stroke="#17191C" stroke-linecap="round" stroke-linejoin="round"/>
</g>
<defs>
<clipPath id="clip0_752_1461">
<rect width="16" height="16" fill="white"/>
</clipPath>
</defs>
</svg>
