<svg width="16" height="16" viewBox="0 0 16 16" fill="none" xmlns="http://www.w3.org/2000/svg">
<path d="M14.3786 7.48198C14.4837 7.67105 14.5362 7.76559 14.5568 7.8657C14.575 7.95431 14.575 8.04569 14.5568 8.1343C14.5362 8.23442 14.4837 8.32895 14.3786 8.51802L11.6379 13.4514C11.5269 13.651 11.4715 13.7509 11.3926 13.8236C11.3228 13.8879 11.2401 13.9366 11.15 13.9663C11.0481 14 10.9339 14 10.7054 14H5.29404C5.06561 14 4.95139 14 4.84953 13.9663C4.75941 13.9366 4.67669 13.8879 4.6069 13.8236C4.52801 13.7509 4.47254 13.651 4.3616 13.4514L1.62086 8.51802C1.51582 8.32895 1.4633 8.23441 1.44271 8.1343C1.42449 8.04569 1.42449 7.95431 1.44271 7.8657C1.4633 7.76558 1.51582 7.67105 1.62086 7.48198L4.3616 2.54865C4.47254 2.34897 4.52801 2.24912 4.6069 2.17642C4.67669 2.11211 4.75941 2.06343 4.84953 2.03366C4.95139 2 5.06561 2 5.29404 2L10.7054 2C10.9339 2 11.0481 2 11.15 2.03366C11.2401 2.06343 11.3228 2.11211 11.3926 2.17642C11.4715 2.24912 11.5269 2.34897 11.6379 2.54865L14.3786 7.48198Z" stroke="#17191C" stroke-linecap="round" stroke-linejoin="round"/>
</svg>
