<svg width="16" height="16" viewBox="0 0 16 16" fill="none" xmlns="http://www.w3.org/2000/svg">
<path d="M11.3333 6.33325V4.06659C11.3333 3.69322 11.3333 3.50653 11.2607 3.36393C11.1968 3.23848 11.0948 3.1365 10.9693 3.07258C10.8267 2.99992 10.64 2.99992 10.2667 2.99992H2M8.66667 9.66658V11.9333C8.66667 12.3066 8.66667 12.4933 8.594 12.6359C8.53009 12.7614 8.4281 12.8633 8.30266 12.9273C8.16005 12.9999 7.97337 12.9999 7.6 12.9999H2M2 1.33325L2 14.6666M2 9.66658L12.9333 9.66658C13.3067 9.66658 13.4934 9.66658 13.636 9.59392C13.7614 9.53001 13.8634 9.42802 13.9273 9.30258C14 9.15997 14 8.97329 14 8.59992V7.39992C14 7.02655 14 6.83987 13.9273 6.69726C13.8634 6.57182 13.7614 6.46983 13.636 6.40591C13.4934 6.33325 13.3067 6.33325 12.9333 6.33325L2 6.33325L2 9.66658Z" stroke="#17191C" stroke-linecap="round" stroke-linejoin="round"/>
</svg>
