<svg width="16" height="16" viewBox="0 0 16 16" fill="none" xmlns="http://www.w3.org/2000/svg">
<path d="M8 8.00016L5.15141 5.62634C4.72817 5.27364 4.51656 5.09729 4.36442 4.88112C4.22963 4.68958 4.12952 4.47586 4.06867 4.24968C4 3.99442 4 3.71896 4 3.16803V1.3335M8 8.00016L10.8486 5.62634C11.2718 5.27364 11.4834 5.09729 11.6356 4.88112C11.7704 4.68958 11.8705 4.47586 11.9313 4.24968C12 3.99442 12 3.71896 12 3.16803V1.3335M8 8.00016L5.15141 10.374C4.72817 10.7267 4.51656 10.903 4.36442 11.1192C4.22963 11.3107 4.12952 11.5245 4.06867 11.7506C4 12.0059 4 12.2814 4 12.8323V14.6668M8 8.00016L10.8486 10.374C11.2718 10.7267 11.4834 10.903 11.6356 11.1192C11.7704 11.3107 11.8705 11.5245 11.9313 11.7506C12 12.0059 12 12.2814 12 12.8323V14.6668M2.66666 1.3335H13.3333M2.66666 14.6668H13.3333" stroke="#17191C" stroke-linecap="round" stroke-linejoin="round"/>
</svg>
