<svg width="16" height="16" viewBox="0 0 16 16" fill="none" xmlns="http://www.w3.org/2000/svg">
<g clip-path="url(#clip0_762_1527)">
<path d="M8.00001 1.3335V2.00016M2.00001 8.00016H1.33334M3.66668 3.66683L3.26661 3.26676M12.3333 3.66683L12.7335 3.26676M14.6667 8.00016H14M6.66668 9.00016H9.33334M8.00001 9.00016V12.3335M10.3333 11.2495C11.3427 10.5233 12 9.33851 12 8.00016C12 5.79102 10.2091 4.00016 8.00001 4.00016C5.79087 4.00016 4.00001 5.79102 4.00001 8.00016C4.00001 9.33851 4.6573 10.5233 5.66668 11.2495V12.5335C5.66668 13.2802 5.66668 13.6536 5.812 13.9388C5.93983 14.1897 6.14381 14.3937 6.39469 14.5215C6.6799 14.6668 7.05327 14.6668 7.80001 14.6668H8.20001C8.94675 14.6668 9.32011 14.6668 9.60533 14.5215C9.85621 14.3937 10.0602 14.1897 10.188 13.9388C10.3333 13.6536 10.3333 13.2802 10.3333 12.5335V11.2495Z" stroke="#17191C" stroke-linecap="round" stroke-linejoin="round"/>
</g>
<defs>
<clipPath id="clip0_762_1527">
<rect width="16" height="16" fill="white"/>
</clipPath>
</defs>
</svg>
