<svg width="16" height="16" viewBox="0 0 16 16" fill="none" xmlns="http://www.w3.org/2000/svg">
<path d="M14.3333 11.9998L9.90476 7.99984M6.09524 7.99984L1.66669 11.9998M1.33334 4.6665L6.77661 8.4768C7.2174 8.78535 7.43779 8.93962 7.67751 8.99938C7.88927 9.05216 8.11074 9.05216 8.32249 8.99938C8.56222 8.93962 8.78261 8.78535 9.22339 8.4768L14.6667 4.6665M4.53334 13.3332H11.4667C12.5868 13.3332 13.1468 13.3332 13.5746 13.1152C13.951 12.9234 14.2569 12.6175 14.4487 12.2412C14.6667 11.8133 14.6667 11.2533 14.6667 10.1332V5.8665C14.6667 4.7464 14.6667 4.18635 14.4487 3.75852C14.2569 3.3822 13.951 3.07624 13.5746 2.88449C13.1468 2.6665 12.5868 2.6665 11.4667 2.6665H4.53334C3.41323 2.6665 2.85318 2.6665 2.42535 2.88449C2.04903 3.07624 1.74307 3.3822 1.55132 3.75852C1.33334 4.18635 1.33334 4.7464 1.33334 5.8665V10.1332C1.33334 11.2533 1.33334 11.8133 1.55132 12.2412C1.74307 12.6175 2.04903 12.9234 2.42535 13.1152C2.85318 13.3332 3.41323 13.3332 4.53334 13.3332Z" stroke="#17191C" stroke-linecap="round" stroke-linejoin="round"/>
</svg>
