<svg width="16" height="16" viewBox="0 0 16 16" fill="none" xmlns="http://www.w3.org/2000/svg">
<path d="M9.16265 1.75564L14.1813 5.01778C14.3587 5.13305 14.4473 5.19068 14.5116 5.26756C14.5684 5.33561 14.6112 5.41433 14.6372 5.4991C14.6667 5.59486 14.6667 5.70061 14.6667 5.91212V10.7999C14.6667 11.92 14.6667 12.4801 14.4487 12.9079C14.2569 13.2842 13.951 13.5902 13.5747 13.7819C13.1468 13.9999 12.5868 13.9999 11.4667 13.9999H4.53334C3.41324 13.9999 2.85319 13.9999 2.42536 13.7819C2.04904 13.5902 1.74308 13.2842 1.55133 12.9079C1.33334 12.4801 1.33334 11.92 1.33334 10.7999V5.91212C1.33334 5.70061 1.33334 5.59486 1.36279 5.4991C1.38886 5.41433 1.43157 5.33561 1.48844 5.26756C1.55268 5.19068 1.64135 5.13305 1.81869 5.01778L6.83737 1.75564M9.16265 1.75564C8.74182 1.4821 8.53141 1.34533 8.30469 1.29211C8.10429 1.24508 7.89572 1.24508 7.69533 1.29211C7.46861 1.34533 7.2582 1.4821 6.83737 1.75564M9.16265 1.75564L13.2908 4.43891C13.7493 4.73698 13.9786 4.88602 14.058 5.07501C14.1274 5.24018 14.1274 5.42633 14.058 5.5915C13.9786 5.78049 13.7493 5.92953 13.2908 6.2276L9.16265 8.91087C8.74183 9.18441 8.53141 9.32118 8.30469 9.37439C8.10429 9.42143 7.89572 9.42143 7.69533 9.37439C7.46861 9.32118 7.2582 9.18441 6.83737 8.91087L2.70925 6.22759C2.25069 5.92953 2.0214 5.78049 1.94199 5.5915C1.8726 5.42633 1.8726 5.24018 1.94199 5.07501C2.0214 4.88602 2.25069 4.73698 2.70925 4.43891L6.83737 1.75564M14.3333 12.6666L9.90479 8.66659M6.09522 8.66659L1.66668 12.6666" stroke="#17191C" stroke-linecap="round" stroke-linejoin="round"/>
</svg>
