<svg width="16" height="16" viewBox="0 0 16 16" fill="none" xmlns="http://www.w3.org/2000/svg">
<g clip-path="url(#clip0_762_1265)">
<path d="M8 14.6667C11.6819 14.6667 14.6667 11.6819 14.6667 8.00004C14.6667 4.31814 11.6819 1.33337 8 1.33337C4.3181 1.33337 1.33334 4.31814 1.33334 8.00004C1.33334 11.6819 4.3181 14.6667 8 14.6667Z" stroke="#17191C" stroke-linecap="round" stroke-linejoin="round"/>
<path d="M9.22223 4.86671C9.22223 4.68002 9.22223 4.58668 9.18589 4.51538C9.15394 4.45266 9.10294 4.40166 9.04022 4.36971C8.96892 4.33337 8.87558 4.33337 8.68889 4.33337H7.31111C7.12443 4.33337 7.03109 4.33337 6.95978 4.36971C6.89706 4.40166 6.84607 4.45266 6.81411 4.51538C6.77778 4.58668 6.77778 4.68002 6.77778 4.86671V6.24449C6.77778 6.43117 6.77778 6.52451 6.74145 6.59582C6.70949 6.65854 6.6585 6.70953 6.59578 6.74149C6.52447 6.77782 6.43113 6.77782 6.24445 6.77782H4.86667C4.67999 6.77782 4.58664 6.77782 4.51534 6.81415C4.45262 6.84611 4.40162 6.8971 4.36967 6.95982C4.33334 7.03113 4.33334 7.12447 4.33334 7.31115V8.68893C4.33334 8.87561 4.33334 8.96896 4.36967 9.04026C4.40162 9.10298 4.45262 9.15397 4.51534 9.18593C4.58664 9.22226 4.67999 9.22226 4.86667 9.22226H6.24445C6.43113 9.22226 6.52447 9.22226 6.59578 9.25859C6.6585 9.29055 6.70949 9.34155 6.74145 9.40427C6.77778 9.47557 6.77778 9.56891 6.77778 9.7556V11.1334C6.77778 11.3201 6.77778 11.4134 6.81411 11.4847C6.84607 11.5474 6.89706 11.5984 6.95978 11.6304C7.03109 11.6667 7.12443 11.6667 7.31111 11.6667H8.68889C8.87558 11.6667 8.96892 11.6667 9.04022 11.6304C9.10294 11.5984 9.15394 11.5474 9.18589 11.4847C9.22223 11.4134 9.22223 11.3201 9.22223 11.1334V9.7556C9.22223 9.56891 9.22222 9.47557 9.25856 9.40427C9.29051 9.34155 9.34151 9.29055 9.40423 9.25859C9.47553 9.22226 9.56887 9.22226 9.75556 9.22226H11.1333C11.32 9.22226 11.4134 9.22226 11.4847 9.18593C11.5474 9.15397 11.5984 9.10298 11.6303 9.04026C11.6667 8.96896 11.6667 8.87561 11.6667 8.68893V7.31115C11.6667 7.12447 11.6667 7.03113 11.6303 6.95982C11.5984 6.8971 11.5474 6.84611 11.4847 6.81415C11.4134 6.77782 11.32 6.77782 11.1333 6.77782H9.75556C9.56887 6.77782 9.47553 6.77782 9.40423 6.74149C9.34151 6.70953 9.29051 6.65854 9.25856 6.59582C9.22222 6.52451 9.22223 6.43117 9.22223 6.24448V4.86671Z" stroke="#17191C" stroke-linecap="round" stroke-linejoin="round"/>
</g>
<defs>
<clipPath id="clip0_762_1265">
<rect width="16" height="16" fill="white"/>
</clipPath>
</defs>
</svg>
