<svg width="16" height="16" viewBox="0 0 16 16" fill="none" xmlns="http://www.w3.org/2000/svg">
<g clip-path="url(#clip0_762_1455)">
<path d="M6.66668 10.0002L4.61651 12.076C4.33053 12.3655 4.18755 12.5103 4.06464 12.5205C3.95802 12.5293 3.85362 12.4865 3.78398 12.4053C3.70371 12.3116 3.70371 12.1081 3.70371 11.7012V10.6612C3.70371 10.2961 3.40473 10.032 3.04348 9.97905C2.16917 9.85098 1.48253 9.16433 1.35446 8.29003C1.33334 8.14586 1.33334 7.97384 1.33334 7.62979V4.5335C1.33334 3.41339 1.33334 2.85334 1.55133 2.42552C1.74308 2.04919 2.04904 1.74323 2.42536 1.55148C2.85319 1.3335 3.41324 1.3335 4.53334 1.3335H9.46668C10.5868 1.3335 11.1468 1.3335 11.5747 1.55148C11.951 1.74323 12.2569 2.04919 12.4487 2.42552C12.6667 2.85334 12.6667 3.41339 12.6667 4.5335V7.3335M12.6667 14.6668L11.2157 13.6581C11.0118 13.5163 10.9098 13.4454 10.7988 13.3951C10.7003 13.3505 10.5967 13.318 10.4904 13.2984C10.3706 13.2764 10.2464 13.2764 9.99796 13.2764H8.80001C8.05327 13.2764 7.6799 13.2764 7.39469 13.131C7.14381 13.0032 6.93983 12.7992 6.812 12.5483C6.66668 12.2631 6.66668 11.8898 6.66668 11.143V9.46683C6.66668 8.72009 6.66668 8.34672 6.812 8.06151C6.93983 7.81063 7.14381 7.60665 7.39469 7.47882C7.6799 7.3335 8.05327 7.3335 8.80001 7.3335H12.5333C13.2801 7.3335 13.6534 7.3335 13.9387 7.47882C14.1895 7.60665 14.3935 7.81063 14.5214 8.06151C14.6667 8.34672 14.6667 8.72009 14.6667 9.46683V11.2764C14.6667 11.8976 14.6667 12.2082 14.5652 12.4533C14.4299 12.78 14.1703 13.0395 13.8436 13.1749C13.5986 13.2764 13.2879 13.2764 12.6667 13.2764V14.6668Z" stroke="#17191C" stroke-linecap="round" stroke-linejoin="round"/>
</g>
<defs>
<clipPath id="clip0_762_1455">
<rect width="16" height="16" fill="white"/>
</clipPath>
</defs>
</svg>
