<svg width="16" height="16" viewBox="0 0 16 16" fill="none" xmlns="http://www.w3.org/2000/svg">
<path d="M5.33334 14H10.6667M8 11.3333V14M4.53334 11.3333H11.4667C12.5868 11.3333 13.1468 11.3333 13.5746 11.1153C13.951 10.9236 14.2569 10.6176 14.4487 10.2413C14.6667 9.81349 14.6667 9.25344 14.6667 8.13333V5.2C14.6667 4.0799 14.6667 3.51984 14.4487 3.09202C14.2569 2.71569 13.951 2.40973 13.5746 2.21799C13.1468 2 12.5868 2 11.4667 2H4.53334C3.41323 2 2.85318 2 2.42535 2.21799C2.04903 2.40973 1.74307 2.71569 1.55132 3.09202C1.33334 3.51984 1.33334 4.0799 1.33334 5.2V8.13333C1.33334 9.25344 1.33334 9.81349 1.55132 10.2413C1.74307 10.6176 2.04903 10.9236 2.42535 11.1153C2.85318 11.3333 3.41323 11.3333 4.53334 11.3333Z" stroke="#17191C" stroke-linecap="round" stroke-linejoin="round"/>
</svg>
