<svg width="16" height="16" viewBox="0 0 16 16" fill="none" xmlns="http://www.w3.org/2000/svg">
<path d="M6 12.0001V4.23707C6 3.91605 6 3.75554 6.0584 3.62535C6.10988 3.51059 6.19278 3.41274 6.29751 3.34309C6.41632 3.26408 6.57465 3.2377 6.89131 3.18492L12.758 2.20714C13.1853 2.13592 13.3989 2.10031 13.5655 2.16216C13.7116 2.21643 13.8341 2.32019 13.9116 2.45541C14 2.60948 14 2.82609 14 3.2593V10.6668M6 12.0001C6 13.1047 5.10457 14.0001 4 14.0001C2.89543 14.0001 2 13.1047 2 12.0001C2 10.8956 2.89543 10.0001 4 10.0001C5.10457 10.0001 6 10.8956 6 12.0001ZM14 10.6668C14 11.7714 13.1046 12.6668 12 12.6668C10.8954 12.6668 10 11.7714 10 10.6668C10 9.56223 10.8954 8.6668 12 8.6668C13.1046 8.6668 14 9.56223 14 10.6668Z" stroke="#17191C" stroke-linecap="round" stroke-linejoin="round"/>
</svg>
