<svg width="16" height="16" viewBox="0 0 16 16" fill="none" xmlns="http://www.w3.org/2000/svg">
<g clip-path="url(#clip0_762_1680)">
<path d="M4.92758 1.64592C5.04288 1.53061 5.10053 1.47296 5.16781 1.43174C5.22746 1.39518 5.29249 1.36825 5.36051 1.35192C5.43724 1.3335 5.51877 1.3335 5.68183 1.3335H10.3182C10.4812 1.3335 10.5628 1.3335 10.6395 1.35192C10.7075 1.36825 10.7725 1.39518 10.8322 1.43174C10.8995 1.47296 10.9571 1.53061 11.0724 1.64592L14.3542 4.92774C14.4695 5.04304 14.5272 5.10069 14.5684 5.16797C14.605 5.22762 14.6319 5.29265 14.6482 5.36067C14.6667 5.4374 14.6667 5.51893 14.6667 5.68199V10.3183C14.6667 10.4814 14.6667 10.5629 14.6482 10.6396C14.6319 10.7077 14.605 10.7727 14.5684 10.8324C14.5272 10.8996 14.4695 10.9573 14.3542 11.0726L11.0724 14.3544C10.9571 14.4697 10.8995 14.5274 10.8322 14.5686C10.7725 14.6051 10.7075 14.6321 10.6395 14.6484C10.5628 14.6668 10.4812 14.6668 10.3182 14.6668H5.68183C5.51877 14.6668 5.43724 14.6668 5.36051 14.6484C5.29249 14.6321 5.22746 14.6051 5.16781 14.5686C5.10053 14.5274 5.04288 14.4697 4.92758 14.3544L1.64576 11.0726C1.53045 10.9573 1.4728 10.8996 1.43158 10.8324C1.39502 10.7727 1.36809 10.7077 1.35176 10.6396C1.33334 10.5629 1.33334 10.4814 1.33334 10.3183V5.68199C1.33334 5.51893 1.33334 5.4374 1.35176 5.36067C1.36809 5.29265 1.39502 5.22762 1.43158 5.16797C1.4728 5.10069 1.53045 5.04304 1.64576 4.92774L4.92758 1.64592Z" stroke="#17191C" stroke-linecap="round" stroke-linejoin="round"/>
</g>
<defs>
<clipPath id="clip0_762_1680">
<rect width="16" height="16" fill="white"/>
</clipPath>
</defs>
</svg>
