<svg width="16" height="16" viewBox="0 0 16 16" fill="none" xmlns="http://www.w3.org/2000/svg">
<g clip-path="url(#clip0_762_1645)">
<path d="M1.33334 8.00016C1.33334 11.6821 4.31811 14.6668 8.00001 14.6668C9.10458 14.6668 10 13.7714 10 12.6668V12.3335C10 12.0239 10 11.8691 10.0171 11.7391C10.1353 10.8416 10.8415 10.1354 11.739 10.0173C11.8689 10.0002 12.0237 10.0002 12.3333 10.0002H12.6667C13.7712 10.0002 14.6667 9.10473 14.6667 8.00016C14.6667 4.31826 11.6819 1.3335 8.00001 1.3335C4.31811 1.3335 1.33334 4.31826 1.33334 8.00016Z" stroke="#17191C" stroke-linecap="round" stroke-linejoin="round"/>
<path d="M4.66668 8.66683C5.03487 8.66683 5.33334 8.36835 5.33334 8.00016C5.33334 7.63197 5.03487 7.3335 4.66668 7.3335C4.29849 7.3335 4.00001 7.63197 4.00001 8.00016C4.00001 8.36835 4.29849 8.66683 4.66668 8.66683Z" stroke="#17191C" stroke-linecap="round" stroke-linejoin="round"/>
<path d="M10.6667 6.00016C11.0349 6.00016 11.3333 5.70169 11.3333 5.3335C11.3333 4.96531 11.0349 4.66683 10.6667 4.66683C10.2985 4.66683 10 4.96531 10 5.3335C10 5.70169 10.2985 6.00016 10.6667 6.00016Z" stroke="#17191C" stroke-linecap="round" stroke-linejoin="round"/>
<path d="M6.66668 5.3335C7.03487 5.3335 7.33334 5.03502 7.33334 4.66683C7.33334 4.29864 7.03487 4.00016 6.66668 4.00016C6.29849 4.00016 6.00001 4.29864 6.00001 4.66683C6.00001 5.03502 6.29849 5.3335 6.66668 5.3335Z" stroke="#17191C" stroke-linecap="round" stroke-linejoin="round"/>
</g>
<defs>
<clipPath id="clip0_762_1645">
<rect width="16" height="16" fill="white"/>
</clipPath>
</defs>
</svg>
