<svg width="16" height="16" viewBox="0 0 16 16" fill="none" xmlns="http://www.w3.org/2000/svg">
<path d="M14.6667 7.3335V5.46683C14.6667 4.72009 14.6667 4.34672 14.5214 4.06151C14.3935 3.81063 14.1895 3.60665 13.9387 3.47882C13.6534 3.3335 13.2801 3.3335 12.5333 3.3335H3.46668C2.71994 3.3335 2.34657 3.3335 2.06136 3.47882C1.81047 3.60665 1.6065 3.81063 1.47867 4.06151C1.33334 4.34672 1.33334 4.72009 1.33334 5.46683V7.86683C1.33334 8.61357 1.33334 8.98693 1.47867 9.27215C1.6065 9.52303 1.81047 9.72701 2.06136 9.85484C2.34657 10.0002 2.71994 10.0002 3.46668 10.0002H7.33334M8.00001 6.66683H8.00334M11.3333 6.66683H11.3367M4.66668 6.66683H4.67001M12.8333 11.3335V10.1668C12.8333 9.5225 12.311 9.00016 11.6667 9.00016C11.0223 9.00016 10.5 9.5225 10.5 10.1668V11.3335M8.16668 6.66683C8.16668 6.75888 8.09206 6.8335 8.00001 6.8335C7.90796 6.8335 7.83334 6.75888 7.83334 6.66683C7.83334 6.57478 7.90796 6.50016 8.00001 6.50016C8.09206 6.50016 8.16668 6.57478 8.16668 6.66683ZM11.5 6.66683C11.5 6.75888 11.4254 6.8335 11.3333 6.8335C11.2413 6.8335 11.1667 6.75888 11.1667 6.66683C11.1667 6.57478 11.2413 6.50016 11.3333 6.50016C11.4254 6.50016 11.5 6.57478 11.5 6.66683ZM4.83334 6.66683C4.83334 6.75888 4.75872 6.8335 4.66668 6.8335C4.57463 6.8335 4.50001 6.75888 4.50001 6.66683C4.50001 6.57478 4.57463 6.50016 4.66668 6.50016C4.75872 6.50016 4.83334 6.57478 4.83334 6.66683ZM10.4 14.0002H12.9333C13.3067 14.0002 13.4934 14.0002 13.636 13.9275C13.7614 13.8636 13.8634 13.7616 13.9273 13.6362C14 13.4935 14 13.3069 14 12.9335V12.4002C14 12.0268 14 11.8401 13.9273 11.6975C13.8634 11.5721 13.7614 11.4701 13.636 11.4062C13.4934 11.3335 13.3067 11.3335 12.9333 11.3335H10.4C10.0266 11.3335 9.83996 11.3335 9.69735 11.4062C9.57191 11.4701 9.46992 11.5721 9.40601 11.6975C9.33334 11.8401 9.33334 12.0268 9.33334 12.4002V12.9335C9.33334 13.3069 9.33334 13.4935 9.40601 13.6362C9.46992 13.7616 9.57191 13.8636 9.69735 13.9275C9.83996 14.0002 10.0266 14.0002 10.4 14.0002Z" stroke="#17191C" stroke-linecap="round" stroke-linejoin="round"/>
</svg>
