<svg width="16" height="16" viewBox="0 0 16 16" fill="none" xmlns="http://www.w3.org/2000/svg">
<path d="M8.00001 7.99984H8.00334M11.3333 7.99984H11.3367M4.66668 7.99984H4.67001M3.46668 4.6665H12.5333C13.2801 4.6665 13.6534 4.6665 13.9387 4.81183C14.1895 4.93966 14.3935 5.14363 14.5214 5.39452C14.6667 5.67973 14.6667 6.0531 14.6667 6.79984V9.19984C14.6667 9.94657 14.6667 10.3199 14.5214 10.6052C14.3935 10.856 14.1895 11.06 13.9387 11.1878C13.6534 11.3332 13.2801 11.3332 12.5333 11.3332H3.46668C2.71994 11.3332 2.34657 11.3332 2.06136 11.1878C1.81047 11.06 1.6065 10.856 1.47867 10.6052C1.33334 10.3199 1.33334 9.94657 1.33334 9.19984V6.79984C1.33334 6.0531 1.33334 5.67973 1.47867 5.39452C1.6065 5.14363 1.81047 4.93966 2.06136 4.81183C2.34657 4.6665 2.71994 4.6665 3.46668 4.6665ZM8.16668 7.99984C8.16668 8.09188 8.09206 8.1665 8.00001 8.1665C7.90796 8.1665 7.83334 8.09188 7.83334 7.99984C7.83334 7.90779 7.90796 7.83317 8.00001 7.83317C8.09206 7.83317 8.16668 7.90779 8.16668 7.99984ZM11.5 7.99984C11.5 8.09188 11.4254 8.1665 11.3333 8.1665C11.2413 8.1665 11.1667 8.09188 11.1667 7.99984C11.1667 7.90779 11.2413 7.83317 11.3333 7.83317C11.4254 7.83317 11.5 7.90779 11.5 7.99984ZM4.83334 7.99984C4.83334 8.09188 4.75872 8.1665 4.66668 8.1665C4.57463 8.1665 4.50001 8.09188 4.50001 7.99984C4.50001 7.90779 4.57463 7.83317 4.66668 7.83317C4.75872 7.83317 4.83334 7.90779 4.83334 7.99984Z" stroke="#17191C" stroke-linecap="round" stroke-linejoin="round"/>
</svg>
