<svg width="16" height="16" viewBox="0 0 16 16" fill="none" xmlns="http://www.w3.org/2000/svg">
<g clip-path="url(#clip0_762_1643)">
<path d="M12 1.3335L14.6667 4.00016M1.33334 14.6668L2.18428 11.5467C2.23979 11.3432 2.26755 11.2414 2.31016 11.1465C2.348 11.0622 2.39449 10.9821 2.44889 10.9074C2.51015 10.8234 2.58475 10.7488 2.73395 10.5996L9.62289 3.71062C9.75489 3.57861 9.82089 3.51261 9.897 3.48788C9.96395 3.46613 10.0361 3.46613 10.103 3.48788C10.1791 3.51261 10.2451 3.57861 10.3771 3.71062L12.2896 5.62304C12.4216 5.75504 12.4876 5.82105 12.5123 5.89716C12.534 5.9641 12.534 6.03622 12.5123 6.10317C12.4876 6.17928 12.4216 6.24528 12.2896 6.37729L5.40061 13.2662C5.25142 13.4154 5.17682 13.49 5.09273 13.5513C5.01807 13.6057 4.93796 13.6522 4.85369 13.69C4.75877 13.7326 4.65699 13.7604 4.45344 13.8159L1.33334 14.6668Z" stroke="#17191C" stroke-linecap="round" stroke-linejoin="round"/>
</g>
<defs>
<clipPath id="clip0_762_1643">
<rect width="16" height="16" fill="white"/>
</clipPath>
</defs>
</svg>
