<svg width="16" height="16" viewBox="0 0 16 16" fill="none" xmlns="http://www.w3.org/2000/svg">
<path d="M8 11.6668H8.00667M5.46667 14.6668H10.5333C11.2801 14.6668 11.6534 14.6668 11.9387 14.5215C12.1895 14.3937 12.3935 14.1897 12.5213 13.9388C12.6667 13.6536 12.6667 13.2802 12.6667 12.5335V3.46683C12.6667 2.72009 12.6667 2.34672 12.5213 2.06151C12.3935 1.81063 12.1895 1.60665 11.9387 1.47882C11.6534 1.3335 11.2801 1.3335 10.5333 1.3335H5.46667C4.71993 1.3335 4.34656 1.3335 4.06135 1.47882C3.81047 1.60665 3.60649 1.81063 3.47866 2.06151C3.33334 2.34672 3.33334 2.72009 3.33334 3.46683V12.5335C3.33334 13.2802 3.33334 13.6536 3.47866 13.9388C3.60649 14.1897 3.81047 14.3937 4.06135 14.5215C4.34656 14.6668 4.71993 14.6668 5.46667 14.6668ZM8.33334 11.6668C8.33334 11.8509 8.1841 12.0002 8 12.0002C7.81591 12.0002 7.66667 11.8509 7.66667 11.6668C7.66667 11.4827 7.81591 11.3335 8 11.3335C8.1841 11.3335 8.33334 11.4827 8.33334 11.6668Z" stroke="#17191C" stroke-linecap="round" stroke-linejoin="round"/>
</svg>
