<svg width="16" height="16" viewBox="0 0 16 16" fill="none" xmlns="http://www.w3.org/2000/svg">
<g clip-path="url(#clip0_762_1407)">
<path d="M14.1403 10.5932C13.7162 11.5962 13.0528 12.48 12.2082 13.1674C11.3636 13.8548 10.3635 14.3248 9.29524 14.5364C8.22701 14.748 7.12323 14.6946 6.08038 14.3811C5.03753 14.0675 4.08736 13.5033 3.31296 12.7377C2.53855 11.972 1.96349 11.0284 1.63804 9.98918C1.31258 8.94998 1.24665 7.84688 1.44601 6.77631C1.64537 5.70574 2.10394 4.7003 2.78164 3.8479C3.45934 2.9955 4.33553 2.3221 5.33361 1.88655M14.1595 5.44866C14.4264 6.09297 14.5901 6.77413 14.6456 7.46711C14.6593 7.63831 14.6662 7.72391 14.6322 7.80102C14.6038 7.86543 14.5476 7.92638 14.4856 7.95984C14.4115 7.99988 14.3189 7.99988 14.1336 7.99988H8.53361C8.34693 7.99988 8.25359 7.99988 8.18228 7.96355C8.11956 7.93159 8.06857 7.8806 8.03661 7.81788C8.00028 7.74658 8.00028 7.65323 8.00028 7.46655V1.86655C8.00028 1.68131 8.00028 1.58868 8.04033 1.51454C8.07378 1.4526 8.13473 1.39634 8.19914 1.36795C8.27625 1.33395 8.36185 1.34081 8.53305 1.35454C9.22604 1.4101 9.90719 1.57381 10.5515 1.84069C11.3603 2.17572 12.0953 2.66678 12.7143 3.28584C13.3334 3.9049 13.8244 4.63982 14.1595 5.44866Z" stroke="#17191C" stroke-linecap="round" stroke-linejoin="round"/>
</g>
<defs>
<clipPath id="clip0_762_1407">
<rect width="16" height="16" fill="white"/>
</clipPath>
</defs>
</svg>
