<svg width="16" height="16" viewBox="0 0 16 16" fill="none" xmlns="http://www.w3.org/2000/svg">
<path d="M3.33331 3.32618C3.33331 2.67874 3.33331 2.35502 3.46831 2.17657C3.58591 2.02111 3.76566 1.92491 3.96025 1.91329C4.1836 1.89995 4.45296 2.07952 4.99166 2.43866L12.002 7.11224C12.4472 7.40899 12.6697 7.55736 12.7473 7.74438C12.8151 7.90788 12.8151 8.09164 12.7473 8.25514C12.6697 8.44216 12.4472 8.59053 12.002 8.88728L4.99166 13.5609C4.45296 13.92 4.1836 14.0996 3.96025 14.0862C3.76566 14.0746 3.58591 13.9784 3.46831 13.823C3.33331 13.6445 3.33331 13.3208 3.33331 12.6733V3.32618Z" stroke="#17191C" stroke-linecap="round" stroke-linejoin="round"/>
</svg>
