<svg width="16" height="16" viewBox="0 0 16 16" fill="none" xmlns="http://www.w3.org/2000/svg">
<g clip-path="url(#clip0_762_1845)">
<path d="M6.00001 11.333L2.66668 14.6663M10 11.333L13.3333 14.6663M8.00001 1.33301V2.66634M8.00001 14.6663V11.333M3.46668 11.333H12.5333C13.2801 11.333 13.6534 11.333 13.9387 11.1877C14.1895 11.0599 14.3935 10.8559 14.5214 10.605C14.6667 10.3198 14.6667 9.94641 14.6667 9.19967V4.79967C14.6667 4.05294 14.6667 3.67957 14.5214 3.39435C14.3935 3.14347 14.1895 2.9395 13.9387 2.81167C13.6534 2.66634 13.2801 2.66634 12.5333 2.66634H3.46668C2.71994 2.66634 2.34657 2.66634 2.06136 2.81167C1.81047 2.9395 1.6065 3.14347 1.47867 3.39435C1.33334 3.67957 1.33334 4.05294 1.33334 4.79967V9.19967C1.33334 9.94641 1.33334 10.3198 1.47867 10.605C1.6065 10.8559 1.81047 11.0599 2.06136 11.1877C2.34657 11.333 2.71994 11.333 3.46668 11.333Z" stroke="#17191C" stroke-linecap="round" stroke-linejoin="round"/>
</g>
<defs>
<clipPath id="clip0_762_1845">
<rect width="16" height="16" fill="white"/>
</clipPath>
</defs>
</svg>
