<svg width="16" height="16" viewBox="0 0 16 16" fill="none" xmlns="http://www.w3.org/2000/svg">
<path d="M8 10.6667V14M8 10.6667L12 14M8 10.6667L4 14M14 2V7.46667C14 8.58677 14 9.14682 13.782 9.57465C13.5903 9.95097 13.2843 10.2569 12.908 10.4487C12.4802 10.6667 11.9201 10.6667 10.8 10.6667H5.2C4.0799 10.6667 3.51984 10.6667 3.09202 10.4487C2.7157 10.2569 2.40974 9.95097 2.21799 9.57465C2 9.14682 2 8.58677 2 7.46667V2M5.33334 6V8M8 4.66667V8M10.6667 7.33333V8M14.6667 2H1.33334" stroke="#17191C" stroke-linecap="round" stroke-linejoin="round"/>
</svg>
