<svg width="16" height="16" viewBox="0 0 16 16" fill="none" xmlns="http://www.w3.org/2000/svg">
<g clip-path="url(#clip0_762_1514)">
<path d="M12 4.66683V3.46683C12 2.72009 12 2.34672 11.8547 2.06151C11.7269 1.81063 11.5229 1.60665 11.272 1.47882C10.9868 1.3335 10.6134 1.3335 9.86668 1.3335H6.13334C5.38661 1.3335 5.01324 1.3335 4.72802 1.47882C4.47714 1.60665 4.27317 1.81063 4.14533 2.06151C4.00001 2.34672 4.00001 2.72009 4.00001 3.46683V4.66683M4.00001 12.0002C3.38003 12.0002 3.07004 12.0002 2.81571 11.932C2.12552 11.7471 1.58643 11.208 1.40149 10.5178C1.33334 10.2635 1.33334 9.95348 1.33334 9.3335V7.86683C1.33334 6.74672 1.33334 6.18667 1.55133 5.75885C1.74308 5.38252 2.04904 5.07656 2.42536 4.88482C2.85319 4.66683 3.41324 4.66683 4.53334 4.66683H11.4667C12.5868 4.66683 13.1468 4.66683 13.5747 4.88482C13.951 5.07656 14.2569 5.38252 14.4487 5.75885C14.6667 6.18667 14.6667 6.74672 14.6667 7.86683V9.3335C14.6667 9.95348 14.6667 10.2635 14.5985 10.5178C14.4136 11.208 13.8745 11.7471 13.1843 11.932C12.93 12.0002 12.62 12.0002 12 12.0002M10 7.00016H12M6.13334 14.6668H9.86668C10.6134 14.6668 10.9868 14.6668 11.272 14.5215C11.5229 14.3937 11.7269 14.1897 11.8547 13.9388C12 13.6536 12 13.2802 12 12.5335V11.4668C12 10.7201 12 10.3467 11.8547 10.0615C11.7269 9.81063 11.5229 9.60665 11.272 9.47882C10.9868 9.3335 10.6134 9.3335 9.86668 9.3335H6.13334C5.38661 9.3335 5.01324 9.3335 4.72802 9.47882C4.47714 9.60665 4.27317 9.81063 4.14533 10.0615C4.00001 10.3467 4.00001 10.7201 4.00001 11.4668V12.5335C4.00001 13.2802 4.00001 13.6536 4.14533 13.9388C4.27317 14.1897 4.47714 14.3937 4.72802 14.5215C5.01324 14.6668 5.38661 14.6668 6.13334 14.6668Z" stroke="#17191C" stroke-linecap="round" stroke-linejoin="round"/>
</g>
<defs>
<clipPath id="clip0_762_1514">
<rect width="16" height="16" fill="white"/>
</clipPath>
</defs>
</svg>
