<svg width="16" height="16" viewBox="0 0 16 16" fill="none" xmlns="http://www.w3.org/2000/svg">
<g clip-path="url(#clip0_762_1848)">
<path d="M9.66666 3.66692L10.6667 4.66692M7.66666 5.66692L8.66666 6.66692M5.66666 7.66692L6.66666 8.66692M3.66666 9.66692L4.66666 10.6669M1.71043 11.7107L4.28951 14.2898C4.42152 14.4218 4.48752 14.4878 4.56363 14.5126C4.63058 14.5343 4.70269 14.5343 4.76964 14.5126C4.84575 14.4878 4.91175 14.4218 5.04376 14.2898L14.2895 5.04407C14.4215 4.91206 14.4875 4.84606 14.5123 4.76995C14.534 4.703 14.534 4.63088 14.5123 4.56394C14.4875 4.48783 14.4215 4.42182 14.2895 4.28982L11.7104 1.71073C11.5784 1.57873 11.5124 1.51272 11.4363 1.48799C11.3694 1.46624 11.2972 1.46624 11.2303 1.48799C11.1542 1.51272 11.0882 1.57873 10.9562 1.71073L1.71043 10.9565C1.57842 11.0885 1.51242 11.1545 1.48769 11.2306C1.46594 11.2976 1.46594 11.3697 1.48769 11.4366C1.51242 11.5127 1.57842 11.5787 1.71043 11.7107Z" stroke="#17191C" stroke-linecap="round" stroke-linejoin="round"/>
</g>
<defs>
<clipPath id="clip0_762_1848">
<rect width="16" height="16" fill="white"/>
</clipPath>
</defs>
</svg>
