<svg width="16" height="16" viewBox="0 0 16 16" fill="none" xmlns="http://www.w3.org/2000/svg">
<path d="M6.99968 9.00012L13.9997 2.00012M7.08473 9.21883L8.83681 13.7242C8.99116 14.1211 9.06833 14.3195 9.17953 14.3774C9.27593 14.4277 9.39077 14.4277 9.48722 14.3776C9.59849 14.3198 9.6759 14.1215 9.83072 13.7247L14.2243 2.46625C14.364 2.10813 14.4339 1.92907 14.3957 1.81465C14.3625 1.71528 14.2845 1.6373 14.1851 1.60411C14.0707 1.56588 13.8917 1.63576 13.5335 1.77552L2.27505 6.16908C1.87833 6.32389 1.67998 6.4013 1.62217 6.51257C1.57206 6.60903 1.57212 6.72386 1.62235 6.82026C1.68029 6.93146 1.87874 7.00864 2.27563 7.16299L6.78097 8.91506C6.86153 8.94639 6.90182 8.96206 6.93574 8.98625C6.9658 9.0077 6.9921 9.03399 7.01354 9.06406C7.03774 9.09798 7.0534 9.13826 7.08473 9.21883Z" stroke="#17191C" stroke-linecap="round" stroke-linejoin="round"/>
</svg>
