<svg width="16" height="16" viewBox="0 0 16 16" fill="none" xmlns="http://www.w3.org/2000/svg">
<path d="M5.99999 7.66691L7.33332 9.00024L10.3333 6.00024M13.3333 8.00024C13.3333 11.2725 9.76402 13.6525 8.46532 14.4102C8.31772 14.4963 8.24393 14.5393 8.13978 14.5617C8.05895 14.579 7.94103 14.579 7.8602 14.5617C7.75605 14.5393 7.68226 14.4963 7.53466 14.4102C6.23596 13.6525 2.66666 11.2725 2.66666 8.00024V4.81197C2.66666 4.27897 2.66666 4.01246 2.75383 3.78338C2.83084 3.581 2.95598 3.40042 3.11843 3.25726C3.30232 3.0952 3.55186 3.00162 4.05093 2.81447L7.62546 1.47402C7.76406 1.42205 7.83335 1.39606 7.90465 1.38576C7.96788 1.37662 8.0321 1.37662 8.09533 1.38576C8.16663 1.39606 8.23592 1.42205 8.37452 1.47402L11.9491 2.81447C12.4481 3.00162 12.6977 3.0952 12.8816 3.25726C13.044 3.40042 13.1691 3.581 13.2462 3.78338C13.3333 4.01246 13.3333 4.27897 13.3333 4.81197V8.00024Z" stroke="#17191C" stroke-linecap="round" stroke-linejoin="round"/>
</svg>
