<svg width="16" height="16" viewBox="0 0 16 16" fill="none" xmlns="http://www.w3.org/2000/svg">
<path d="M12.6667 3.3335V12.6668M5.06635 11.9471L8.95885 8.83309C9.31475 8.54837 9.4927 8.40601 9.55712 8.23403C9.61361 8.08323 9.61361 7.91709 9.55712 7.7663C9.4927 7.59431 9.31475 7.45195 8.95885 7.16724L5.06635 4.05324C4.51157 3.60941 4.23418 3.3875 4.00073 3.38725C3.7977 3.38703 3.60564 3.47934 3.47898 3.63801C3.33334 3.82046 3.33334 4.1757 3.33334 4.88616V11.1142C3.33334 11.8246 3.33334 12.1799 3.47898 12.3623C3.60564 12.521 3.7977 12.6133 4.00073 12.6131C4.23418 12.6128 4.51157 12.3909 5.06635 11.9471Z" stroke="#17191C" stroke-linecap="round" stroke-linejoin="round"/>
</svg>
