<svg width="16" height="16" viewBox="0 0 16 16" fill="none" xmlns="http://www.w3.org/2000/svg">
<path d="M3.33334 12.6668V3.3335M10.9337 4.05324L7.04116 7.16724C6.68526 7.45195 6.50731 7.59431 6.44289 7.7663C6.3864 7.91709 6.3864 8.08323 6.44289 8.23403C6.50731 8.40601 6.68526 8.54837 7.04116 8.83309L10.9337 11.9471C11.4884 12.3909 11.7658 12.6128 11.9993 12.6131C12.2023 12.6133 12.3944 12.521 12.521 12.3623C12.6667 12.1799 12.6667 11.8246 12.6667 11.1142V4.88616C12.6667 4.1757 12.6667 3.82046 12.521 3.63801C12.3944 3.47934 12.2023 3.38703 11.9993 3.38725C11.7658 3.3875 11.4884 3.60941 10.9337 4.05324Z" stroke="#17191C" stroke-linecap="round" stroke-linejoin="round"/>
</svg>
