<svg width="16" height="16" viewBox="0 0 16 16" fill="none" xmlns="http://www.w3.org/2000/svg">
<path d="M4 4.00004L7 7.00004M4 4.00004H2L1.33334 2.00004L2 1.33337L4 2.00004V4.00004ZM12.8393 1.82738L11.0876 3.57913C10.8236 3.84314 10.6916 3.97514 10.6421 4.12736C10.5986 4.26126 10.5986 4.40549 10.6421 4.53939C10.6916 4.6916 10.8236 4.82361 11.0876 5.08762L11.2458 5.24579C11.5098 5.5098 11.6418 5.64181 11.794 5.69127C11.9279 5.73477 12.0721 5.73477 12.206 5.69127C12.3582 5.64181 12.4902 5.5098 12.7542 5.24579L14.3929 3.60719C14.5693 4.03663 14.6667 4.50697 14.6667 5.00004C14.6667 7.02508 13.025 8.66671 11 8.66671C10.7559 8.66671 10.5173 8.64285 10.2865 8.59733C9.96241 8.53341 9.80036 8.50145 9.70213 8.51124C9.59769 8.52165 9.54622 8.53731 9.45368 8.58683C9.36663 8.63341 9.27932 8.72073 9.10469 8.89535L4.33334 13.6667C3.78105 14.219 2.88562 14.219 2.33334 13.6667C1.78105 13.1144 1.78105 12.219 2.33334 11.6667L7.10469 6.89535C7.27932 6.72072 7.36663 6.63341 7.41321 6.54637C7.46274 6.45383 7.47839 6.40235 7.4888 6.29791C7.49859 6.19968 7.46663 6.03763 7.40271 5.71353C7.3572 5.48275 7.33334 5.24418 7.33334 5.00004C7.33334 2.975 8.97496 1.33337 11 1.33337C11.6703 1.33337 12.2987 1.51326 12.8393 1.82738ZM8.00004 10L11.6667 13.6666C12.219 14.2189 13.1144 14.2189 13.6667 13.6666C14.2189 13.1143 14.2189 12.2189 13.6667 11.6666L10.6502 8.65024C10.4367 8.63003 10.2285 8.59151 10.0272 8.53626C9.76782 8.46507 9.4833 8.51674 9.29311 8.70693L8.00004 10Z" stroke="#17191C" stroke-linecap="round" stroke-linejoin="round"/>
</svg>
