<svg width="16" height="16" viewBox="0 0 16 16" fill="none" xmlns="http://www.w3.org/2000/svg">
<path d="M1.59347 12.0657L7.07673 2.59464C7.37977 2.07119 7.53129 1.80947 7.72898 1.72157C7.90142 1.64489 8.09828 1.64489 8.27071 1.72157C8.4684 1.80947 8.61992 2.07119 8.92297 2.59463L14.4062 12.0657C14.7104 12.591 14.8624 12.8537 14.84 13.0693C14.8204 13.2573 14.7218 13.4282 14.5689 13.5394C14.3936 13.6668 14.0901 13.6668 13.4831 13.6668H2.51659C1.90957 13.6668 1.60607 13.6668 1.43076 13.5394C1.27786 13.4282 1.17934 13.2573 1.15974 13.0693C1.13726 12.8537 1.28933 12.591 1.59347 12.0657Z" stroke="#17191C" stroke-linecap="round" stroke-linejoin="round"/>
</svg>
