<svg width="16" height="16" viewBox="0 0 16 16" fill="none" xmlns="http://www.w3.org/2000/svg">
<path d="M8.00001 10C5.88663 10 4.00721 11.0204 2.81068 12.604C2.55315 12.9448 2.42439 13.1152 2.4286 13.3455C2.43185 13.5235 2.54359 13.7479 2.68359 13.8578C2.8648 14 3.11593 14 3.61817 14H12.3819C12.8841 14 13.1352 14 13.3164 13.8578C13.4564 13.7479 13.5682 13.5235 13.5714 13.3455C13.5756 13.1152 13.4469 12.9448 13.1894 12.604C11.9928 11.0204 10.1134 10 8.00001 10Z" stroke="#17191C" stroke-linecap="round" stroke-linejoin="round"/>
<path d="M8.00001 8C9.65687 8 11 6.65685 11 5C11 3.34315 9.65687 2 8.00001 2C6.34316 2 5.00001 3.34315 5.00001 5C5.00001 6.65685 6.34316 8 8.00001 8Z" stroke="#17191C" stroke-linecap="round" stroke-linejoin="round"/>
</svg>
