<svg width="16" height="16" viewBox="0 0 16 16" fill="none" xmlns="http://www.w3.org/2000/svg">
<g clip-path="url(#clip0_762_1478)">
<path d="M2.66669 14.5451C3.0684 14.6668 3.611 14.6668 4.53334 14.6668H11.4667C12.389 14.6668 12.9316 14.6668 13.3333 14.5451M2.66669 14.5451C2.58055 14.519 2.50089 14.4873 2.42535 14.4488C2.04903 14.2571 1.74307 13.9511 1.55132 13.5748C1.33334 13.147 1.33334 12.5869 1.33334 11.4668V4.5335C1.33334 3.41339 1.33334 2.85334 1.55132 2.42552C1.74307 2.04919 2.04903 1.74323 2.42535 1.55148C2.85318 1.3335 3.41323 1.3335 4.53334 1.3335H11.4667C12.5868 1.3335 13.1468 1.3335 13.5746 1.55148C13.951 1.74323 14.2569 2.04919 14.4487 2.42552C14.6667 2.85334 14.6667 3.41339 14.6667 4.5335V11.4668C14.6667 12.5869 14.6667 13.147 14.4487 13.5748C14.2569 13.9511 13.951 14.2571 13.5746 14.4488C13.4991 14.4873 13.4195 14.519 13.3333 14.5451M2.66669 14.5451C2.6669 14.0056 2.67014 13.7201 2.71791 13.4799C2.92833 12.4221 3.75525 11.5952 4.81309 11.3847C5.07069 11.3335 5.38046 11.3335 6 11.3335H10C10.6195 11.3335 10.9293 11.3335 11.1869 11.3847C12.2448 11.5952 13.0717 12.4221 13.2821 13.4799C13.3299 13.7201 13.3331 14.0056 13.3333 14.5451M10.6667 6.3335C10.6667 7.80625 9.47276 9.00016 8 9.00016C6.52724 9.00016 5.33334 7.80625 5.33334 6.3335C5.33334 4.86074 6.52724 3.66683 8 3.66683C9.47276 3.66683 10.6667 4.86074 10.6667 6.3335Z" stroke="#17191C" stroke-linecap="round" stroke-linejoin="round"/>
</g>
<defs>
<clipPath id="clip0_762_1478">
<rect width="16" height="16" fill="white"/>
</clipPath>
</defs>
</svg>
