<svg width="16" height="16" viewBox="0 0 16 16" fill="none" xmlns="http://www.w3.org/2000/svg">
<g clip-path="url(#clip0_762_1480)">
<path d="M3.5442 12.9591C3.94975 12.0036 4.89662 11.3335 6 11.3335H10C11.1034 11.3335 12.0503 12.0036 12.4558 12.9591M10.6667 6.3335C10.6667 7.80625 9.47276 9.00016 8 9.00016C6.52724 9.00016 5.33334 7.80625 5.33334 6.3335C5.33334 4.86074 6.52724 3.66683 8 3.66683C9.47276 3.66683 10.6667 4.86074 10.6667 6.3335ZM14.6667 8.00016C14.6667 11.6821 11.6819 14.6668 8 14.6668C4.3181 14.6668 1.33334 11.6821 1.33334 8.00016C1.33334 4.31826 4.3181 1.3335 8 1.3335C11.6819 1.3335 14.6667 4.31826 14.6667 8.00016Z" stroke="#17191C" stroke-linecap="round" stroke-linejoin="round"/>
</g>
<defs>
<clipPath id="clip0_762_1480">
<rect width="16" height="16" fill="white"/>
</clipPath>
</defs>
</svg>
