<svg width="16" height="16" viewBox="0 0 16 16" fill="none" xmlns="http://www.w3.org/2000/svg">
<path d="M10.6667 13.9998V13.1998C10.6667 12.0797 10.6667 11.5197 10.4487 11.0919C10.2569 10.7155 9.95098 10.4096 9.57466 10.2178C9.14683 9.99984 8.58678 9.99984 7.46668 9.99984H4.53334C3.41324 9.99984 2.85319 9.99984 2.42536 10.2178C2.04904 10.4096 1.74308 10.7155 1.55133 11.0919C1.33334 11.5197 1.33334 12.0797 1.33334 13.1998V13.9998M10.6667 3.99984L12 5.33317L14.6667 2.6665M8.33334 4.99984C8.33334 6.2885 7.28867 7.33317 6.00001 7.33317C4.71135 7.33317 3.66668 6.2885 3.66668 4.99984C3.66668 3.71117 4.71135 2.6665 6.00001 2.6665C7.28867 2.6665 8.33334 3.71117 8.33334 4.99984Z" stroke="#17191C" stroke-linecap="round" stroke-linejoin="round"/>
</svg>
