<svg width="16" height="16" viewBox="0 0 16 16" fill="none" xmlns="http://www.w3.org/2000/svg">
<g clip-path="url(#clip0_762_1279)">
<path d="M8 1.33337V4.66671M8 1.33337C7.5245 1.33337 7.06062 1.38316 6.61329 1.4778M8 1.33337C8.47551 1.33337 8.93939 1.38316 9.38671 1.4778M8 4.66671C6.15905 4.66671 4.66668 6.15911 4.66668 8.00006M8 4.66671C9.84095 4.66671 11.3334 6.15911 11.3334 8.00006M8 11.3334V14.6667M8 11.3334C9.84095 11.3334 11.3334 9.841 11.3334 8.00006M8 11.3334C6.15905 11.3334 4.66668 9.84101 4.66668 8.00006M8 14.6667C8.4748 14.6667 8.938 14.6171 9.38471 14.5227M8 14.6667C7.52344 14.6667 7.05856 14.6167 6.61032 14.5217M3.28596 3.286L5.64298 5.64302M10.357 10.3571L12.714 12.7141M1.33335 8.00006H4.66668M1.33335 8.00006C1.33335 8.4756 1.38313 8.9395 1.47778 9.38685M1.33335 8.00006C1.33335 7.52382 1.38327 7.05922 1.47819 6.61126M11.3334 8.00006H14.6667M14.6667 8.00006C14.6667 7.52451 14.6169 7.06058 14.5222 6.61323M14.6667 8.00006C14.6667 8.47541 14.6169 8.93913 14.5223 9.38633M3.28596 12.7141L5.64298 10.3571M10.357 5.64302L12.714 3.286M11.6311 2.40809C12.414 2.9175 13.0833 3.58686 13.5925 4.36984M13.5907 11.6331C13.0813 12.4153 12.4122 13.084 11.6297 13.5929M4.36916 13.5922C3.58738 13.0835 2.91889 12.4154 2.40985 11.6339M2.40782 4.36929C2.91698 3.58667 3.58598 2.91759 4.36852 2.40833" stroke="#17191C" stroke-linecap="round" stroke-linejoin="round"/>
</g>
<defs>
<clipPath id="clip0_762_1279">
<rect width="16" height="16" fill="white"/>
</clipPath>
</defs>
</svg>
